<svg width="278" height="46" viewBox="0 0 278 46" fill="none" xmlns="http://www.w3.org/2000/svg">
<path d="M102.464 37C102.123 37 101.824 36.8827 101.568 36.648C101.333 36.392 101.216 36.0933 101.216 35.752V13.256C101.216 12.8933 101.333 12.5947 101.568 12.36C101.803 12.1253 102.101 12.008 102.464 12.008H117.472C117.835 12.008 118.133 12.1253 118.368 12.36C118.603 12.5733 118.72 12.8613 118.72 13.224C118.72 13.544 118.603 13.8213 118.368 14.056C118.133 14.2907 117.835 14.408 117.472 14.408H103.712V23.24H113.728C114.091 23.24 114.389 23.3573 114.624 23.592C114.859 23.8267 114.976 24.1147 114.976 24.456C114.976 24.7973 114.859 25.0853 114.624 25.32C114.389 25.5547 114.091 25.672 113.728 25.672H103.712V35.752C103.712 36.0933 103.595 36.392 103.36 36.648C103.125 36.8827 102.827 37 102.464 37ZM123.904 26.216C123.968 24.8933 124.309 23.7093 124.928 22.664C125.568 21.6187 126.389 20.7973 127.392 20.2C128.416 19.6027 129.547 19.304 130.784 19.304C131.765 19.304 132.523 19.4427 133.056 19.72C133.589 19.9973 133.792 20.4027 133.664 20.936C133.579 21.256 133.429 21.4693 133.216 21.576C133.024 21.6827 132.779 21.7253 132.48 21.704C132.203 21.6827 131.883 21.6613 131.52 21.64C130.325 21.5333 129.259 21.6613 128.32 22.024C127.403 22.3653 126.667 22.8987 126.112 23.624C125.579 24.3493 125.312 25.2133 125.312 26.216H123.904ZM124.096 37C123.712 37 123.413 36.8933 123.2 36.68C122.987 36.4667 122.88 36.168 122.88 35.784V20.712C122.88 20.328 122.987 20.0293 123.2 19.816C123.413 19.6027 123.712 19.496 124.096 19.496C124.48 19.496 124.779 19.6027 124.992 19.816C125.205 20.0293 125.312 20.328 125.312 20.712V35.784C125.312 36.168 125.205 36.4667 124.992 36.68C124.779 36.8933 124.48 37 124.096 37ZM144.223 37.16C142.516 37.16 140.991 36.776 139.647 36.008C138.303 35.24 137.247 34.184 136.479 32.84C135.711 31.496 135.327 29.9707 135.327 28.264C135.327 26.536 135.711 25 136.479 23.656C137.247 22.312 138.303 21.256 139.647 20.488C140.991 19.72 142.516 19.336 144.223 19.336C145.93 19.336 147.444 19.72 148.767 20.488C150.111 21.256 151.167 22.312 151.935 23.656C152.703 25 153.098 26.536 153.119 28.264C153.119 29.9707 152.724 31.496 151.935 32.84C151.167 34.184 150.111 35.24 148.767 36.008C147.444 36.776 145.93 37.16 144.223 37.16ZM144.223 34.92C145.46 34.92 146.57 34.632 147.551 34.056C148.532 33.48 149.3 32.6907 149.855 31.688C150.41 30.6853 150.687 29.544 150.687 28.264C150.687 26.984 150.41 25.8427 149.855 24.84C149.3 23.816 148.532 23.016 147.551 22.44C146.57 21.864 145.46 21.576 144.223 21.576C142.986 21.576 141.876 21.864 140.895 22.44C139.914 23.016 139.135 23.816 138.559 24.84C138.004 25.8427 137.727 26.984 137.727 28.264C137.727 29.544 138.004 30.6853 138.559 31.688C139.135 32.6907 139.914 33.48 140.895 34.056C141.876 34.632 142.986 34.92 144.223 34.92ZM161.687 37C160.834 37 160.066 36.7653 159.383 36.296C158.722 35.8267 158.199 35.176 157.815 34.344C157.453 33.512 157.271 32.552 157.271 31.464V13.224C157.271 12.8613 157.378 12.5733 157.591 12.36C157.826 12.1253 158.125 12.008 158.487 12.008C158.85 12.008 159.138 12.1253 159.351 12.36C159.586 12.5733 159.703 12.8613 159.703 13.224V31.464C159.703 32.3813 159.885 33.128 160.247 33.704C160.631 34.28 161.111 34.568 161.687 34.568H162.487C162.807 34.568 163.063 34.6853 163.255 34.92C163.447 35.1333 163.543 35.4213 163.543 35.784C163.543 36.1467 163.405 36.4453 163.127 36.68C162.871 36.8933 162.53 37 162.103 37H161.687ZM168.703 37C168.319 37 168.009 36.8933 167.775 36.68C167.561 36.4453 167.455 36.136 167.455 35.752V20.744C167.455 20.36 167.561 20.0613 167.775 19.848C168.009 19.6133 168.319 19.496 168.703 19.496C169.065 19.496 169.353 19.6133 169.567 19.848C169.801 20.0613 169.919 20.36 169.919 20.744V35.752C169.919 36.136 169.801 36.4453 169.567 36.68C169.353 36.8933 169.065 37 168.703 37ZM168.671 16.168C168.201 16.168 167.796 15.9973 167.455 15.656C167.113 15.3147 166.943 14.8987 166.943 14.408C166.943 13.8747 167.113 13.4587 167.455 13.16C167.817 12.84 168.233 12.68 168.703 12.68C169.151 12.68 169.545 12.84 169.887 13.16C170.249 13.4587 170.431 13.8747 170.431 14.408C170.431 14.8987 170.26 15.3147 169.919 15.656C169.577 15.9973 169.161 16.168 168.671 16.168ZM178.209 31.144L176.705 29.512L187.649 19.624C187.905 19.3893 188.171 19.2827 188.449 19.304C188.726 19.304 188.982 19.432 189.217 19.688C189.451 19.944 189.558 20.2213 189.537 20.52C189.537 20.7973 189.409 21.0427 189.153 21.256L178.209 31.144ZM177.409 37C177.046 37 176.747 36.8933 176.513 36.68C176.299 36.4453 176.193 36.1467 176.193 35.784V13.224C176.193 12.8613 176.299 12.5733 176.513 12.36C176.747 12.1253 177.046 12.008 177.409 12.008C177.771 12.008 178.059 12.1253 178.273 12.36C178.507 12.5733 178.625 12.8613 178.625 13.224V35.784C178.625 36.1467 178.507 36.4453 178.273 36.68C178.059 36.8933 177.771 37 177.409 37ZM189.249 36.84C188.971 37.0747 188.683 37.1707 188.385 37.128C188.086 37.1067 187.83 36.9573 187.617 36.68L180.481 27.912L182.209 26.376L189.409 35.24C189.622 35.496 189.718 35.7733 189.697 36.072C189.675 36.3493 189.526 36.6053 189.249 36.84ZM203.464 37C203.123 37 202.824 36.8827 202.568 36.648C202.333 36.392 202.216 36.0933 202.216 35.752V13.256C202.216 12.8933 202.333 12.5947 202.568 12.36C202.803 12.1253 203.101 12.008 203.464 12.008H218.472C218.835 12.008 219.133 12.1253 219.368 12.36C219.603 12.5733 219.72 12.8613 219.72 13.224C219.72 13.544 219.603 13.8213 219.368 14.056C219.133 14.2907 218.835 14.408 218.472 14.408H204.712V23.24H214.728C215.091 23.24 215.389 23.3573 215.624 23.592C215.859 23.8267 215.976 24.1147 215.976 24.456C215.976 24.7973 215.859 25.0853 215.624 25.32C215.389 25.5547 215.091 25.672 214.728 25.672H204.712V35.752C204.712 36.0933 204.595 36.392 204.36 36.648C204.125 36.8827 203.827 37 203.464 37ZM231.848 37.16C230.141 37.16 228.616 36.776 227.272 36.008C225.928 35.24 224.872 34.184 224.104 32.84C223.336 31.496 222.952 29.9707 222.952 28.264C222.952 26.536 223.336 25 224.104 23.656C224.872 22.312 225.928 21.256 227.272 20.488C228.616 19.72 230.141 19.336 231.848 19.336C233.555 19.336 235.069 19.72 236.392 20.488C237.736 21.256 238.792 22.312 239.56 23.656C240.328 25 240.723 26.536 240.744 28.264C240.744 29.9707 240.349 31.496 239.56 32.84C238.792 34.184 237.736 35.24 236.392 36.008C235.069 36.776 233.555 37.16 231.848 37.16ZM231.848 34.92C233.085 34.92 234.195 34.632 235.176 34.056C236.157 33.48 236.925 32.6907 237.48 31.688C238.035 30.6853 238.312 29.544 238.312 28.264C238.312 26.984 238.035 25.8427 237.48 24.84C236.925 23.816 236.157 23.016 235.176 22.44C234.195 21.864 233.085 21.576 231.848 21.576C230.611 21.576 229.501 21.864 228.52 22.44C227.539 23.016 226.76 23.816 226.184 24.84C225.629 25.8427 225.352 26.984 225.352 28.264C225.352 29.544 225.629 30.6853 226.184 31.688C226.76 32.6907 227.539 33.48 228.52 34.056C229.501 34.632 230.611 34.92 231.848 34.92ZM252.384 37C251.254 37 250.24 36.7333 249.344 36.2C248.47 35.6667 247.776 34.9413 247.264 34.024C246.752 33.0853 246.496 32.0187 246.496 30.824V15.176C246.496 14.8133 246.603 14.5147 246.816 14.28C247.051 14.0453 247.35 13.928 247.712 13.928C248.075 13.928 248.374 14.0453 248.608 14.28C248.843 14.5147 248.96 14.8133 248.96 15.176V30.824C248.96 31.912 249.28 32.808 249.92 33.512C250.56 34.1947 251.382 34.536 252.384 34.536H253.248C253.59 34.536 253.867 34.6533 254.08 34.888C254.294 35.1227 254.4 35.4213 254.4 35.784C254.4 36.1467 254.272 36.4453 254.016 36.68C253.76 36.8933 253.44 37 253.056 37H252.384ZM244.416 22.28C244.096 22.28 243.83 22.184 243.616 21.992C243.403 21.7787 243.296 21.5227 243.296 21.224C243.296 20.904 243.403 20.648 243.616 20.456C243.83 20.2427 244.096 20.136 244.416 20.136H252.576C252.896 20.136 253.163 20.2427 253.376 20.456C253.59 20.648 253.696 20.904 253.696 21.224C253.696 21.5227 253.59 21.7787 253.376 21.992C253.163 22.184 252.896 22.28 252.576 22.28H244.416ZM266.379 37.16C264.673 37.16 263.147 36.776 261.803 36.008C260.459 35.24 259.403 34.184 258.635 32.84C257.867 31.496 257.483 29.9707 257.483 28.264C257.483 26.536 257.867 25 258.635 23.656C259.403 22.312 260.459 21.256 261.803 20.488C263.147 19.72 264.673 19.336 266.379 19.336C268.086 19.336 269.601 19.72 270.923 20.488C272.267 21.256 273.323 22.312 274.091 23.656C274.859 25 275.254 26.536 275.275 28.264C275.275 29.9707 274.881 31.496 274.091 32.84C273.323 34.184 272.267 35.24 270.923 36.008C269.601 36.776 268.086 37.16 266.379 37.16ZM266.379 34.92C267.617 34.92 268.726 34.632 269.707 34.056C270.689 33.48 271.457 32.6907 272.011 31.688C272.566 30.6853 272.843 29.544 272.843 28.264C272.843 26.984 272.566 25.8427 272.011 24.84C271.457 23.816 270.689 23.016 269.707 22.44C268.726 21.864 267.617 21.576 266.379 21.576C265.142 21.576 264.033 21.864 263.051 22.44C262.07 23.016 261.291 23.816 260.715 24.84C260.161 25.8427 259.883 26.984 259.883 28.264C259.883 29.544 260.161 30.6853 260.715 31.688C261.291 32.6907 262.07 33.48 263.051 34.056C264.033 34.632 265.142 34.92 266.379 34.92Z" fill="black"/>
<path d="M33.8598 43.9616C33.3076 43.9616 32.8598 44.4093 32.8598 44.9616C32.8598 45.5139 33.3076 45.9616 33.8598 45.9616V43.9616ZM50.8059 39.3129L49.8298 39.096L50.8059 39.3129ZM44.0521 7.01708L44.0121 6.01788L44.0521 7.01708ZM40.1225 6.40309L41.0664 6.07274L41.0282 5.96369L40.9662 5.86621L40.1225 6.40309ZM38.4034 3.70154L37.4787 4.08229L37.5123 4.16393L37.5597 4.23841L38.4034 3.70154ZM34.4738 1L34.4738 3.93391e-06L34.4738 1ZM14.4578 2.22798L13.7104 1.56362L14.4578 2.22798ZM5.37077 7.50829L5.78113 8.42021L5.37077 7.50829ZM1.31845 13.0342L2.31349 13.1337L1.31845 13.0342ZM1.31845 41.2777L0.321685 41.3581L1.31845 41.2777ZM18.8786 44.9616V45.9616H19.8786V44.9616H18.8786ZM18.8786 14.0166V13.0166H17.8786V14.0166H18.8786ZM33.8598 45.9616H43.8065V43.9616H33.8598V45.9616ZM43.8065 45.9616C45.7415 45.9616 47.5953 44.9366 48.9803 43.7165C50.3563 42.5043 51.4734 40.9192 51.7821 39.5298L49.8298 39.096C49.6473 39.9169 48.8611 41.1562 47.6583 42.2158C46.4645 43.2674 45.0642 43.9616 43.8065 43.9616V45.9616ZM51.7821 39.5298C51.8575 39.1905 51.9005 38.6693 51.9301 38.0753C51.9608 37.4568 51.9798 36.6831 51.9901 35.796C52.0107 34.0206 51.9969 31.7584 51.9696 29.3091C51.9149 24.3985 51.8059 18.7374 51.8059 14.6305H49.8059C49.8059 18.7511 49.9153 24.4489 49.9697 29.3314C49.997 31.7786 50.0105 34.0216 49.9902 35.7728C49.98 36.6489 49.9615 37.394 49.9325 37.976C49.9024 38.5827 49.8635 38.9441 49.8298 39.096L51.7821 39.5298ZM51.8059 14.6305C51.8059 12.1359 50.7669 9.96079 49.3033 8.42863C47.8562 6.91366 45.9059 5.94212 44.0121 6.01788L44.092 8.01628C45.2681 7.96924 46.6948 8.59322 47.8571 9.81008C49.003 11.0097 49.8059 12.7028 49.8059 14.6305H51.8059ZM44.0121 6.01788C42.6353 6.07295 41.8312 6.11673 41.3082 6.0621C41.0596 6.03615 40.9913 5.99631 40.9965 5.99939C41.0401 6.02529 41.0671 6.07472 41.0664 6.07274L39.1787 6.73344C39.3212 7.14079 39.5809 7.48483 39.9755 7.71911C40.3316 7.93057 40.7326 8.01287 41.1004 8.05129C41.8102 8.12541 42.8277 8.06685 44.092 8.01628L44.0121 6.01788ZM40.9662 5.86621L39.247 3.16466L37.5597 4.23841L39.2789 6.93996L40.9662 5.86621ZM39.328 3.32079C38.9614 2.4303 38.2794 1.61304 37.453 1.01757C36.6241 0.420279 35.5849 9.29832e-06 34.4738 3.93391e-06L34.4738 2C35.082 2.00001 35.721 2.23465 36.2838 2.64019C36.8491 3.04756 37.2723 3.58107 37.4787 4.08229L39.328 3.32079ZM34.4738 3.93391e-06C32.6281 -4.88758e-06 22.9308 3.93391e-06 17.7733 3.93391e-06V2C22.9308 2 32.6281 2 34.4738 2L34.4738 3.93391e-06ZM17.7733 3.93391e-06C16.7332 3.93391e-06 15.9322 0.108855 15.2628 0.388302C14.5691 0.677887 14.1126 1.11119 13.7104 1.56362L15.2052 2.89235C15.521 2.53711 15.7398 2.35642 16.0332 2.23393C16.3509 2.10131 16.8487 2 17.7733 2V3.93391e-06ZM13.7104 1.56362C12.6362 2.77213 12.22 3.608 11.5986 4.85071L13.3875 5.74514C13.9941 4.5319 14.3147 3.89419 15.2052 2.89235L13.7104 1.56362ZM11.5986 4.85071C11.4331 5.18179 11.3095 5.46376 11.214 5.67934C11.1103 5.91312 11.0569 6.02687 11.0127 6.09978C10.9774 6.158 10.9978 6.10378 11.0851 6.05372C11.1725 6.0036 11.2227 6.0171 11.1423 6.0171V8.0171C11.436 8.0171 11.7653 7.96919 12.0802 7.7886C12.3949 7.60807 12.5911 7.35431 12.7232 7.13623C12.8464 6.93285 12.9521 6.69355 13.0424 6.48986C13.1407 6.26798 13.246 6.02806 13.3875 5.74514L11.5986 4.85071ZM11.1423 6.0171C10.5821 6.0171 9.36994 6.02656 8.16402 6.09419C7.56202 6.12795 6.94728 6.17696 6.40943 6.24908C5.90447 6.31679 5.3576 6.41763 4.9604 6.59637L5.78113 8.42021C5.88785 8.37219 6.17624 8.29825 6.67523 8.23134C7.14134 8.16884 7.69927 8.1234 8.27601 8.09105C9.4276 8.02647 10.5972 8.0171 11.1423 8.0171V6.0171ZM4.9604 6.59637C2.17981 7.84764 0.604789 10.1212 0.323413 12.9347L2.31349 13.1337C2.52335 11.0353 3.64982 9.37931 5.78113 8.42021L4.9604 6.59637ZM0.323413 12.9347C0.226004 13.9087 0.0729879 19.1195 0.0193708 24.9805C-0.0343814 30.8562 0.0105926 37.5005 0.321685 41.3581L2.31521 41.1973C2.01233 37.4415 1.96546 30.8823 2.01929 24.9988C2.07325 19.1005 2.22722 13.9963 2.31349 13.1337L0.323413 12.9347ZM0.321685 41.3581C0.458277 43.0518 1.32923 44.2463 2.51524 44.9824C3.66129 45.6937 5.06607 45.9616 6.35316 45.9616V43.9616C5.30711 43.9616 4.30347 43.7384 3.56991 43.2831C2.87632 42.8526 2.39649 42.2051 2.31521 41.1973L0.321685 41.3581ZM6.35316 45.9616C6.35631 45.9616 6.35948 45.9616 6.36268 45.9616C6.36587 45.9616 6.36909 45.9616 6.37234 45.9616C6.37558 45.9616 6.37885 45.9616 6.38215 45.9616C6.38544 45.9616 6.38876 45.9616 6.3921 45.9616C6.39545 45.9616 6.39882 45.9616 6.40221 45.9616C6.4056 45.9616 6.40902 45.9616 6.41246 45.9616C6.4159 45.9616 6.41936 45.9616 6.42285 45.9616C6.42634 45.9616 6.42985 45.9616 6.43339 45.9616C6.43692 45.9616 6.44048 45.9616 6.44407 45.9616C6.44765 45.9616 6.45126 45.9616 6.4549 45.9616C6.45853 45.9616 6.46218 45.9616 6.46586 45.9616C6.46954 45.9616 6.47325 45.9616 6.47697 45.9616C6.4807 45.9616 6.48445 45.9616 6.48823 45.9616C6.492 45.9616 6.4958 45.9616 6.49962 45.9616C6.50345 45.9616 6.50729 45.9616 6.51116 45.9616C6.51503 45.9616 6.51892 45.9616 6.52284 45.9616C6.52675 45.9616 6.53069 45.9616 6.53465 45.9616C6.53861 45.9616 6.5426 45.9616 6.54661 45.9616C6.55061 45.9616 6.55465 45.9616 6.5587 45.9616C6.56276 45.9616 6.56683 45.9616 6.57093 45.9616C6.57503 45.9616 6.57916 45.9616 6.5833 45.9616C6.58745 45.9616 6.59162 45.9616 6.59581 45.9616C6.6 45.9616 6.60422 45.9616 6.60846 45.9616C6.61269 45.9616 6.61695 45.9616 6.62124 45.9616C6.62552 45.9616 6.62982 45.9616 6.63415 45.9616C6.63848 45.9616 6.64283 45.9616 6.6472 45.9616C6.65158 45.9616 6.65597 45.9616 6.66039 45.9616C6.66481 45.9616 6.66925 45.9616 6.67371 45.9616C6.67817 45.9616 6.68266 45.9616 6.68716 45.9616C6.69167 45.9616 6.6962 45.9616 6.70075 45.9616C6.7053 45.9616 6.70987 45.9616 6.71447 45.9616C6.71906 45.9616 6.72368 45.9616 6.72832 45.9616C6.73296 45.9616 6.73762 45.9616 6.7423 45.9616C6.74699 45.9616 6.75169 45.9616 6.75642 45.9616C6.76114 45.9616 6.76589 45.9616 6.77066 45.9616C6.77543 45.9616 6.78022 45.9616 6.78503 45.9616C6.78985 45.9616 6.79468 45.9616 6.79954 45.9616C6.80439 45.9616 6.80927 45.9616 6.81417 45.9616C6.81907 45.9616 6.82399 45.9616 6.82893 45.9616C6.83387 45.9616 6.83884 45.9616 6.84382 45.9616C6.8488 45.9616 6.85381 45.9616 6.85883 45.9616C6.86386 45.9616 6.86891 45.9616 6.87398 45.9616C6.87905 45.9616 6.88414 45.9616 6.88925 45.9616C6.89436 45.9616 6.89949 45.9616 6.90464 45.9616C6.90979 45.9616 6.91497 45.9616 6.92016 45.9616C6.92535 45.9616 6.93057 45.9616 6.9358 45.9616C6.94104 45.9616 6.9463 45.9616 6.95157 45.9616C6.95685 45.9616 6.96215 45.9616 6.96746 45.9616C6.97278 45.9616 6.97812 45.9616 6.98348 45.9616C6.98884 45.9616 6.99422 45.9616 6.99962 45.9616C7.00502 45.9616 7.01044 45.9616 7.01588 45.9616C7.02132 45.9616 7.02678 45.9616 7.03226 45.9616C7.03774 45.9616 7.04324 45.9616 7.04876 45.9616C7.05428 45.9616 7.05982 45.9616 7.06538 45.9616C7.07094 45.9616 7.07652 45.9616 7.08213 45.9616C7.08773 45.9616 7.09335 45.9616 7.09899 45.9616C7.10463 45.9616 7.11029 45.9616 7.11597 45.9616C7.12165 45.9616 7.12735 45.9616 7.13307 45.9616C7.13879 45.9616 7.14453 45.9616 7.15028 45.9616C7.15604 45.9616 7.16182 45.9616 7.16762 45.9616C7.17342 45.9616 7.17923 45.9616 7.18507 45.9616C7.19091 45.9616 7.19676 45.9616 7.20264 45.9616C7.20851 45.9616 7.21441 45.9616 7.22032 45.9616C7.22623 45.9616 7.23217 45.9616 7.23812 45.9616C7.24407 45.9616 7.25004 45.9616 7.25603 45.9616C7.26202 45.9616 7.26803 45.9616 7.27406 45.9616C7.28009 45.9616 7.28613 45.9616 7.2922 45.9616C7.29826 45.9616 7.30435 45.9616 7.31045 45.9616C7.31656 45.9616 7.32268 45.9616 7.32882 45.9616C7.33496 45.9616 7.34112 45.9616 7.3473 45.9616C7.35348 45.9616 7.35967 45.9616 7.36589 45.9616C7.3721 45.9616 7.37834 45.9616 7.38459 45.9616C7.39084 45.9616 7.39711 45.9616 7.4034 45.9616C7.40969 45.9616 7.416 45.9616 7.42232 45.9616C7.42865 45.9616 7.43499 45.9616 7.44135 45.9616C7.44772 45.9616 7.4541 45.9616 7.46049 45.9616C7.46689 45.9616 7.47331 45.9616 7.47974 45.9616C7.48618 45.9616 7.49263 45.9616 7.4991 45.9616C7.50557 45.9616 7.51206 45.9616 7.51856 45.9616C7.52507 45.9616 7.53159 45.9616 7.53813 45.9616C7.54467 45.9616 7.55123 45.9616 7.55781 45.9616C7.56438 45.9616 7.57098 45.9616 7.57759 45.9616C7.5842 45.9616 7.59083 45.9616 7.59748 45.9616C7.60412 45.9616 7.61079 45.9616 7.61747 45.9616C7.62415 45.9616 7.63085 45.9616 7.63757 45.9616C7.64428 45.9616 7.65102 45.9616 7.65777 45.9616C7.66452 45.9616 7.67128 45.9616 7.67807 45.9616C7.68485 45.9616 7.69166 45.9616 7.69848 45.9616C7.70529 45.9616 7.71213 45.9616 7.71898 45.9616C7.72584 45.9616 7.73271 45.9616 7.73959 45.9616C7.74648 45.9616 7.75338 45.9616 7.7603 45.9616C7.76722 45.9616 7.77416 45.9616 7.78111 45.9616C7.78807 45.9616 7.79504 45.9616 7.80203 45.9616C7.80901 45.9616 7.81602 45.9616 7.82304 45.9616C7.83006 45.9616 7.83709 45.9616 7.84414 45.9616C7.8512 45.9616 7.85827 45.9616 7.86535 45.9616C7.87244 45.9616 7.87954 45.9616 7.88666 45.9616C7.89378 45.9616 7.90091 45.9616 7.90806 45.9616C7.91521 45.9616 7.92238 45.9616 7.92956 45.9616C7.93674 45.9616 7.94394 45.9616 7.95116 45.9616C7.95837 45.9616 7.9656 45.9616 7.97285 45.9616C7.9801 45.9616 7.98736 45.9616 7.99464 45.9616C8.00191 45.9616 8.00921 45.9616 8.01652 45.9616C8.02383 45.9616 8.03115 45.9616 8.03849 45.9616C8.04584 45.9616 8.05319 45.9616 8.06056 45.9616C8.06794 45.9616 8.07532 45.9616 8.08273 45.9616C8.09013 45.9616 8.09755 45.9616 8.10498 45.9616C8.11242 45.9616 8.11987 45.9616 8.12733 45.9616C8.1348 45.9616 8.14228 45.9616 8.14977 45.9616C8.15727 45.9616 8.16478 45.9616 8.1723 45.9616C8.17983 45.9616 8.18737 45.9616 8.19492 45.9616C8.20248 45.9616 8.21005 45.9616 8.21763 45.9616C8.22522 45.9616 8.23282 45.9616 8.24043 45.9616C8.24805 45.9616 8.25568 45.9616 8.26332 45.9616C8.27097 45.9616 8.27863 45.9616 8.2863 45.9616C8.29397 45.9616 8.30166 45.9616 8.30937 45.9616C8.31707 45.9616 8.32479 45.9616 8.33252 45.9616C8.34025 45.9616 8.348 45.9616 8.35576 45.9616C8.36352 45.9616 8.37129 45.9616 8.37908 45.9616C8.38687 45.9616 8.39468 45.9616 8.4025 45.9616C8.41032 45.9616 8.41815 45.9616 8.42599 45.9616C8.43384 45.9616 8.4417 45.9616 8.44958 45.9616C8.45745 45.9616 8.46534 45.9616 8.47324 45.9616C8.48115 45.9616 8.48906 45.9616 8.49699 45.9616C8.50492 45.9616 8.51287 45.9616 8.52083 45.9616C8.52878 45.9616 8.53676 45.9616 8.54474 45.9616C8.55273 45.9616 8.56073 45.9616 8.56874 45.9616C8.57675 45.9616 8.58478 45.9616 8.59282 45.9616C8.60086 45.9616 8.60891 45.9616 8.61698 45.9616C8.62505 45.9616 8.63313 45.9616 8.64122 45.9616C8.64932 45.9616 8.65742 45.9616 8.66554 45.9616C8.67366 45.9616 8.6818 45.9616 8.68994 45.9616C8.69809 45.9616 8.70625 45.9616 8.71442 45.9616C8.7226 45.9616 8.73078 45.9616 8.73898 45.9616C8.74718 45.9616 8.75539 45.9616 8.76362 45.9616C8.77184 45.9616 8.78008 45.9616 8.78833 45.9616C8.79658 45.9616 8.80485 45.9616 8.81312 45.9616C8.8214 45.9616 8.82969 45.9616 8.83799 45.9616C8.84629 45.9616 8.8546 45.9616 8.86293 45.9616C8.87126 45.9616 8.8796 45.9616 8.88795 45.9616C8.8963 45.9616 8.90467 45.9616 8.91304 45.9616C8.92142 45.9616 8.92981 45.9616 8.93821 45.9616C8.94661 45.9616 8.95502 45.9616 8.96345 45.9616C8.97188 45.9616 8.98031 45.9616 8.98876 45.9616C8.99721 45.9616 9.00568 45.9616 9.01415 45.9616C9.02262 45.9616 9.03111 45.9616 9.03961 45.9616C9.04811 45.9616 9.05662 45.9616 9.06514 45.9616C9.07366 45.9616 9.0822 45.9616 9.09074 45.9616C9.09929 45.9616 9.10784 45.9616 9.11641 45.9616C9.12498 45.9616 9.13356 45.9616 9.14216 45.9616C9.15075 45.9616 9.15935 45.9616 9.16797 45.9616C9.17658 45.9616 9.18521 45.9616 9.19385 45.9616C9.20249 45.9616 9.21114 45.9616 9.2198 45.9616C9.22846 45.9616 9.23713 45.9616 9.24582 45.9616C9.2545 45.9616 9.26319 45.9616 9.2719 45.9616C9.28061 45.9616 9.28932 45.9616 9.29805 45.9616C9.30678 45.9616 9.31552 45.9616 9.32427 45.9616C9.33302 45.9616 9.34178 45.9616 9.35055 45.9616C9.35932 45.9616 9.36811 45.9616 9.3769 45.9616C9.3857 45.9616 9.3945 45.9616 9.40332 45.9616C9.41213 45.9616 9.42096 45.9616 9.42979 45.9616C9.43863 45.9616 9.44748 45.9616 9.45634 45.9616C9.46519 45.9616 9.47406 45.9616 9.48294 45.9616C9.49182 45.9616 9.50071 45.9616 9.50961 45.9616C9.51851 45.9616 9.52742 45.9616 9.53634 45.9616C9.54526 45.9616 9.55419 45.9616 9.56313 45.9616C9.57207 45.9616 9.58102 45.9616 9.58998 45.9616C9.59894 45.9616 9.60792 45.9616 9.6169 45.9616C9.62588 45.9616 9.63487 45.9616 9.64387 45.9616C9.65287 45.9616 9.66188 45.9616 9.6709 45.9616C9.67992 45.9616 9.68896 45.9616 9.698 45.9616C9.70704 45.9616 9.71609 45.9616 9.72515 45.9616C9.73421 45.9616 9.74328 45.9616 9.75235 45.9616C9.76143 45.9616 9.77052 45.9616 9.77962 45.9616C9.78872 45.9616 9.79783 45.9616 9.80694 45.9616C9.81606 45.9616 9.82519 45.9616 9.83432 45.9616C9.84346 45.9616 9.8526 45.9616 9.86176 45.9616C9.87091 45.9616 9.88008 45.9616 9.88925 45.9616C9.89842 45.9616 9.9076 45.9616 9.91679 45.9616C9.92599 45.9616 9.93519 45.9616 9.9444 45.9616C9.9536 45.9616 9.96282 45.9616 9.97205 45.9616C9.98128 45.9616 9.99051 45.9616 9.99976 45.9616C10.009 45.9616 10.0183 45.9616 10.0275 45.9616C10.0368 45.9616 10.046 45.9616 10.0553 45.9616C10.0646 45.9616 10.0739 45.9616 10.0832 45.9616C10.0925 45.9616 10.1018 45.9616 10.1111 45.9616C10.1204 45.9616 10.1297 45.9616 10.1391 45.9616C10.1484 45.9616 10.1577 45.9616 10.1671 45.9616C10.1764 45.9616 10.1858 45.9616 10.1952 45.9616C10.2045 45.9616 10.2139 45.9616 10.2233 45.9616C10.2326 45.9616 10.242 45.9616 10.2514 45.9616C10.2608 45.9616 10.2702 45.9616 10.2796 45.9616C10.289 45.9616 10.2985 45.9616 10.3079 45.9616C10.3173 45.9616 10.3268 45.9616 10.3362 45.9616C10.3456 45.9616 10.3551 45.9616 10.3646 45.9616C10.374 45.9616 10.3835 45.9616 10.3929 45.9616C10.4024 45.9616 10.4119 45.9616 10.4214 45.9616C10.4309 45.9616 10.4404 45.9616 10.4499 45.9616C10.4594 45.9616 10.4689 45.9616 10.4784 45.9616C10.4879 45.9616 10.4975 45.9616 10.507 45.9616C10.5165 45.9616 10.5261 45.9616 10.5356 45.9616C10.5452 45.9616 10.5547 45.9616 10.5643 45.9616C10.5738 45.9616 10.5834 45.9616 10.593 45.9616C10.6025 45.9616 10.6121 45.9616 10.6217 45.9616C10.6313 45.9616 10.6409 45.9616 10.6505 45.9616C10.6601 45.9616 10.6697 45.9616 10.6793 45.9616C10.6889 45.9616 10.6986 45.9616 10.7082 45.9616C10.7178 45.9616 10.7275 45.9616 10.7371 45.9616C10.7467 45.9616 10.7564 45.9616 10.7661 45.9616C10.7757 45.9616 10.7854 45.9616 10.795 45.9616C10.8047 45.9616 10.8144 45.9616 10.8241 45.9616C10.8337 45.9616 10.8434 45.9616 10.8531 45.9616C10.8628 45.9616 10.8725 45.9616 10.8822 45.9616C10.8919 45.9616 10.9016 45.9616 10.9114 45.9616C10.9211 45.9616 10.9308 45.9616 10.9405 45.9616C10.9503 45.9616 10.96 45.9616 10.9697 45.9616C10.9795 45.9616 10.9892 45.9616 10.999 45.9616C11.0087 45.9616 11.0185 45.9616 11.0282 45.9616C11.038 45.9616 11.0478 45.9616 11.0576 45.9616C11.0673 45.9616 11.0771 45.9616 11.0869 45.9616C11.0967 45.9616 11.1065 45.9616 11.1163 45.9616C11.1261 45.9616 11.1359 45.9616 11.1457 45.9616C11.1555 45.9616 11.1653 45.9616 11.1751 45.9616C11.1849 45.9616 11.1948 45.9616 11.2046 45.9616C11.2144 45.9616 11.2242 45.9616 11.2341 45.9616C11.2439 45.9616 11.2538 45.9616 11.2636 45.9616C11.2735 45.9616 11.2833 45.9616 11.2932 45.9616C11.303 45.9616 11.3129 45.9616 11.3228 45.9616C11.3326 45.9616 11.3425 45.9616 11.3524 45.9616C11.3623 45.9616 11.3721 45.9616 11.382 45.9616C11.3919 45.9616 11.4018 45.9616 11.4117 45.9616C11.4216 45.9616 11.4315 45.9616 11.4414 45.9616C11.4513 45.9616 11.4612 45.9616 11.4711 45.9616C11.481 45.9616 11.491 45.9616 11.5009 45.9616C11.5108 45.9616 11.5207 45.9616 11.5307 45.9616C11.5406 45.9616 11.5505 45.9616 11.5605 45.9616C11.5704 45.9616 11.5803 45.9616 11.5903 45.9616C11.6002 45.9616 11.6102 45.9616 11.6201 45.9616C11.6301 45.9616 11.6401 45.9616 11.65 45.9616C11.66 45.9616 11.6699 45.9616 11.6799 45.9616C11.6899 45.9616 11.6999 45.9616 11.7098 45.9616C11.7198 45.9616 11.7298 45.9616 11.7398 45.9616C11.7498 45.9616 11.7597 45.9616 11.7697 45.9616C11.7797 45.9616 11.7897 45.9616 11.7997 45.9616C11.8097 45.9616 11.8197 45.9616 11.8297 45.9616C11.8397 45.9616 11.8497 45.9616 11.8597 45.9616C11.8698 45.9616 11.8798 45.9616 11.8898 45.9616C11.8998 45.9616 11.9098 45.9616 11.9199 45.9616C11.9299 45.9616 11.9399 45.9616 11.9499 45.9616C11.96 45.9616 11.97 45.9616 11.98 45.9616C11.9901 45.9616 12.0001 45.9616 12.0101 45.9616C12.0202 45.9616 12.0302 45.9616 12.0403 45.9616C12.0503 45.9616 12.0604 45.9616 12.0704 45.9616C12.0805 45.9616 12.0905 45.9616 12.1006 45.9616C12.1106 45.9616 12.1207 45.9616 12.1308 45.9616C12.1408 45.9616 12.1509 45.9616 12.1609 45.9616C12.171 45.9616 12.1811 45.9616 12.1912 45.9616C12.2012 45.9616 12.2113 45.9616 12.2214 45.9616C12.2314 45.9616 12.2415 45.9616 12.2516 45.9616C12.2617 45.9616 12.2718 45.9616 12.2818 45.9616C12.2919 45.9616 12.302 45.9616 12.3121 45.9616C12.3222 45.9616 12.3323 45.9616 12.3424 45.9616C12.3525 45.9616 12.3625 45.9616 12.3726 45.9616C12.3827 45.9616 12.3928 45.9616 12.4029 45.9616C12.413 45.9616 12.4231 45.9616 12.4332 45.9616C12.4433 45.9616 12.4534 45.9616 12.4635 45.9616C12.4736 45.9616 12.4837 45.9616 12.4938 45.9616C12.504 45.9616 12.5141 45.9616 12.5242 45.9616C12.5343 45.9616 12.5444 45.9616 12.5545 45.9616C12.5646 45.9616 12.5747 45.9616 12.5848 45.9616C12.595 45.9616 12.6051 45.9616 12.6152 45.9616C12.6253 45.9616 12.6354 45.9616 12.6455 45.9616C12.6557 45.9616 12.6658 45.9616 12.6759 45.9616C12.686 45.9616 12.6961 45.9616 12.7063 45.9616C12.7164 45.9616 12.7265 45.9616 12.7366 45.9616C12.7467 45.9616 12.7569 45.9616 12.767 45.9616C12.7771 45.9616 12.7872 45.9616 12.7974 45.9616C12.8075 45.9616 12.8176 45.9616 12.8277 45.9616C12.8379 45.9616 12.848 45.9616 12.8581 45.9616C12.8682 45.9616 12.8784 45.9616 12.8885 45.9616C12.8986 45.9616 12.9087 45.9616 12.9189 45.9616C12.929 45.9616 12.9391 45.9616 12.9493 45.9616C12.9594 45.9616 12.9695 45.9616 12.9796 45.9616C12.9898 45.9616 12.9999 45.9616 13.01 45.9616C13.0201 45.9616 13.0303 45.9616 13.0404 45.9616C13.0505 45.9616 13.0606 45.9616 13.0708 45.9616C13.0809 45.9616 13.091 45.9616 13.1012 45.9616C13.1113 45.9616 13.1214 45.9616 13.1315 45.9616C13.1417 45.9616 13.1518 45.9616 13.1619 45.9616C13.172 45.9616 13.1821 45.9616 13.1923 45.9616C13.2024 45.9616 13.2125 45.9616 13.2226 45.9616C13.2328 45.9616 13.2429 45.9616 13.253 45.9616C13.2631 45.9616 13.2732 45.9616 13.2833 45.9616C13.2935 45.9616 13.3036 45.9616 13.3137 45.9616C13.3238 45.9616 13.3339 45.9616 13.344 45.9616C13.3542 45.9616 13.3643 45.9616 13.3744 45.9616C13.3845 45.9616 13.3946 45.9616 13.4047 45.9616C13.4148 45.9616 13.4249 45.9616 13.435 45.9616C13.4451 45.9616 13.4552 45.9616 13.4653 45.9616C13.4754 45.9616 13.4855 45.9616 13.4956 45.9616C13.5057 45.9616 13.5158 45.9616 13.5259 45.9616C13.536 45.9616 13.5461 45.9616 13.5562 45.9616C13.5663 45.9616 13.5764 45.9616 13.5865 45.9616C13.5966 45.9616 13.6067 45.9616 13.6168 45.9616C13.6269 45.9616 13.6369 45.9616 13.647 45.9616C13.6571 45.9616 13.6672 45.9616 13.6773 45.9616C13.6873 45.9616 13.6974 45.9616 13.7075 45.9616C13.7176 45.9616 13.7276 45.9616 13.7377 45.9616C13.7478 45.9616 13.7579 45.9616 13.7679 45.9616C13.778 45.9616 13.788 45.9616 13.7981 45.9616C13.8082 45.9616 13.8182 45.9616 13.8283 45.9616C13.8383 45.9616 13.8484 45.9616 13.8584 45.9616C13.8685 45.9616 13.8785 45.9616 13.8886 45.9616C13.8986 45.9616 13.9087 45.9616 13.9187 45.9616C13.9288 45.9616 13.9388 45.9616 13.9488 45.9616C13.9589 45.9616 13.9689 45.9616 13.9789 45.9616C13.989 45.9616 13.999 45.9616 14.009 45.9616C14.019 45.9616 14.029 45.9616 14.0391 45.9616C14.0491 45.9616 14.0591 45.9616 14.0691 45.9616C14.0791 45.9616 14.0891 45.9616 14.0991 45.9616C14.1091 45.9616 14.1191 45.9616 14.1291 45.9616C14.1391 45.9616 14.1491 45.9616 14.1591 45.9616C14.1691 45.9616 14.1791 45.9616 14.1891 45.9616C14.199 45.9616 14.209 45.9616 14.219 45.9616C14.229 45.9616 14.239 45.9616 14.2489 45.9616C14.2589 45.9616 14.2689 45.9616 14.2788 45.9616C14.2888 45.9616 14.2987 45.9616 14.3087 45.9616C14.3186 45.9616 14.3286 45.9616 14.3385 45.9616C14.3485 45.9616 14.3584 45.9616 14.3684 45.9616C14.3783 45.9616 14.3882 45.9616 14.3982 45.9616C14.4081 45.9616 14.418 45.9616 14.4279 45.9616C14.4379 45.9616 14.4478 45.9616 14.4577 45.9616C14.4676 45.9616 14.4775 45.9616 14.4874 45.9616C14.4973 45.9616 14.5072 45.9616 14.5171 45.9616C14.527 45.9616 14.5369 45.9616 14.5468 45.9616C14.5567 45.9616 14.5665 45.9616 14.5764 45.9616C14.5863 45.9616 14.5962 45.9616 14.606 45.9616C14.6159 45.9616 14.6258 45.9616 14.6356 45.9616C14.6455 45.9616 14.6553 45.9616 14.6652 45.9616C14.675 45.9616 14.6849 45.9616 14.6947 45.9616C14.7045 45.9616 14.7144 45.9616 14.7242 45.9616C14.734 45.9616 14.7439 45.9616 14.7537 45.9616C14.7635 45.9616 14.7733 45.9616 14.7831 45.9616C14.7929 45.9616 14.8027 45.9616 14.8125 45.9616C14.8223 45.9616 14.8321 45.9616 14.8419 45.9616C14.8517 45.9616 14.8614 45.9616 14.8712 45.9616C14.881 45.9616 14.8908 45.9616 14.9005 45.9616C14.9103 45.9616 14.92 45.9616 14.9298 45.9616C14.9395 45.9616 14.9493 45.9616 14.959 45.9616C14.9688 45.9616 14.9785 45.9616 14.9882 45.9616C14.998 45.9616 15.0077 45.9616 15.0174 45.9616C15.0271 45.9616 15.0368 45.9616 15.0465 45.9616C15.0562 45.9616 15.0659 45.9616 15.0756 45.9616C15.0853 45.9616 15.095 45.9616 15.1047 45.9616C15.1144 45.9616 15.124 45.9616 15.1337 45.9616C15.1434 45.9616 15.153 45.9616 15.1627 45.9616C15.1723 45.9616 15.182 45.9616 15.1916 45.9616C15.2013 45.9616 15.2109 45.9616 15.2205 45.9616C15.2301 45.9616 15.2398 45.9616 15.2494 45.9616C15.259 45.9616 15.2686 45.9616 15.2782 45.9616C15.2878 45.9616 15.2974 45.9616 15.307 45.9616C15.3166 45.9616 15.3262 45.9616 15.3357 45.9616C15.3453 45.9616 15.3549 45.9616 15.3644 45.9616C15.374 45.9616 15.3835 45.9616 15.3931 45.9616C15.4026 45.9616 15.4122 45.9616 15.4217 45.9616C15.4312 45.9616 15.4408 45.9616 15.4503 45.9616C15.4598 45.9616 15.4693 45.9616 15.4788 45.9616C15.4883 45.9616 15.4978 45.9616 15.5073 45.9616C15.5168 45.9616 15.5262 45.9616 15.5357 45.9616C15.5452 45.9616 15.5547 45.9616 15.5641 45.9616C15.5736 45.9616 15.583 45.9616 15.5925 45.9616C15.6019 45.9616 15.6113 45.9616 15.6208 45.9616C15.6302 45.9616 15.6396 45.9616 15.649 45.9616C15.6584 45.9616 15.6678 45.9616 15.6772 45.9616C15.6866 45.9616 15.696 45.9616 15.7054 45.9616C15.7147 45.9616 15.7241 45.9616 15.7335 45.9616C15.7428 45.9616 15.7522 45.9616 15.7615 45.9616C15.7709 45.9616 15.7802 45.9616 15.7895 45.9616C15.7989 45.9616 15.8082 45.9616 15.8175 45.9616C15.8268 45.9616 15.8361 45.9616 15.8454 45.9616C15.8547 45.9616 15.864 45.9616 15.8733 45.9616C15.8825 45.9616 15.8918 45.9616 15.9011 45.9616C15.9103 45.9616 15.9196 45.9616 15.9288 45.9616C15.9381 45.9616 15.9473 45.9616 15.9565 45.9616C15.9658 45.9616 15.975 45.9616 15.9842 45.9616C15.9934 45.9616 16.0026 45.9616 16.0118 45.9616C16.021 45.9616 16.0301 45.9616 16.0393 45.9616C16.0485 45.9616 16.0576 45.9616 16.0668 45.9616C16.0759 45.9616 16.0851 45.9616 16.0942 45.9616C16.1034 45.9616 16.1125 45.9616 16.1216 45.9616C16.1307 45.9616 16.1398 45.9616 16.1489 45.9616C16.158 45.9616 16.1671 45.9616 16.1762 45.9616C16.1853 45.9616 16.1943 45.9616 16.2034 45.9616C16.2124 45.9616 16.2215 45.9616 16.2305 45.9616C16.2396 45.9616 16.2486 45.9616 16.2576 45.9616C16.2666 45.9616 16.2756 45.9616 16.2846 45.9616C16.2936 45.9616 16.3026 45.9616 16.3116 45.9616C16.3206 45.9616 16.3295 45.9616 16.3385 45.9616C16.3475 45.9616 16.3564 45.9616 16.3654 45.9616C16.3743 45.9616 16.3832 45.9616 16.3921 45.9616C16.4011 45.9616 16.41 45.9616 16.4189 45.9616C16.4278 45.9616 16.4366 45.9616 16.4455 45.9616C16.4544 45.9616 16.4633 45.9616 16.4721 45.9616C16.481 45.9616 16.4898 45.9616 16.4987 45.9616C16.5075 45.9616 16.5163 45.9616 16.5251 45.9616C16.5339 45.9616 16.5427 45.9616 16.5515 45.9616C16.5603 45.9616 16.5691 45.9616 16.5779 45.9616C16.5866 45.9616 16.5954 45.9616 16.6042 45.9616C16.6129 45.9616 16.6216 45.9616 16.6304 45.9616C16.6391 45.9616 16.6478 45.9616 16.6565 45.9616C16.6652 45.9616 16.6739 45.9616 16.6826 45.9616C16.6913 45.9616 16.6999 45.9616 16.7086 45.9616C16.7172 45.9616 16.7259 45.9616 16.7345 45.9616C16.7432 45.9616 16.7518 45.9616 16.7604 45.9616C16.769 45.9616 16.7776 45.9616 16.7862 45.9616C16.7948 45.9616 16.8034 45.9616 16.8119 45.9616C16.8205 45.9616 16.8291 45.9616 16.8376 45.9616C16.8462 45.9616 16.8547 45.9616 16.8632 45.9616C16.8717 45.9616 16.8802 45.9616 16.8887 45.9616C16.8972 45.9616 16.9057 45.9616 16.9142 45.9616C16.9226 45.9616 16.9311 45.9616 16.9396 45.9616C16.948 45.9616 16.9564 45.9616 16.9649 45.9616C16.9733 45.9616 16.9817 45.9616 16.9901 45.9616C16.9985 45.9616 17.0069 45.9616 17.0153 45.9616C17.0236 45.9616 17.032 45.9616 17.0403 45.9616C17.0487 45.9616 17.057 45.9616 17.0653 45.9616C17.0737 45.9616 17.082 45.9616 17.0903 45.9616C17.0986 45.9616 17.1069 45.9616 17.1151 45.9616C17.1234 45.9616 17.1317 45.9616 17.1399 45.9616C17.1482 45.9616 17.1564 45.9616 17.1646 45.9616C17.1728 45.9616 17.1811 45.9616 17.1893 45.9616C17.1974 45.9616 17.2056 45.9616 17.2138 45.9616C17.222 45.9616 17.2301 45.9616 17.2383 45.9616C17.2464 45.9616 17.2545 45.9616 17.2627 45.9616C17.2708 45.9616 17.2789 45.9616 17.287 45.9616C17.2951 45.9616 17.3031 45.9616 17.3112 45.9616C17.3193 45.9616 17.3273 45.9616 17.3354 45.9616C17.3434 45.9616 17.3514 45.9616 17.3594 45.9616C17.3674 45.9616 17.3754 45.9616 17.3834 45.9616C17.3914 45.9616 17.3994 45.9616 17.4073 45.9616C17.4153 45.9616 17.4232 45.9616 17.4311 45.9616C17.4391 45.9616 17.447 45.9616 17.4549 45.9616C17.4628 45.9616 17.4707 45.9616 17.4785 45.9616C17.4864 45.9616 17.4943 45.9616 17.5021 45.9616C17.51 45.9616 17.5178 45.9616 17.5256 45.9616C17.5334 45.9616 17.5412 45.9616 17.549 45.9616C17.5568 45.9616 17.5646 45.9616 17.5723 45.9616C17.5801 45.9616 17.5878 45.9616 17.5956 45.9616C17.6033 45.9616 17.611 45.9616 17.6187 45.9616C17.6264 45.9616 17.6341 45.9616 17.6418 45.9616C17.6494 45.9616 17.6571 45.9616 17.6647 45.9616C17.6724 45.9616 17.68 45.9616 17.6876 45.9616C17.6952 45.9616 17.7028 45.9616 17.7104 45.9616C17.718 45.9616 17.7255 45.9616 17.7331 45.9616C17.7406 45.9616 17.7482 45.9616 17.7557 45.9616C17.7632 45.9616 17.7707 45.9616 17.7782 45.9616C17.7857 45.9616 17.7932 45.9616 17.8007 45.9616C17.8081 45.9616 17.8156 45.9616 17.823 45.9616C17.8304 45.9616 17.8378 45.9616 17.8452 45.9616C17.8526 45.9616 17.86 45.9616 17.8674 45.9616C17.8748 45.9616 17.8821 45.9616 17.8894 45.9616C17.8968 45.9616 17.9041 45.9616 17.9114 45.9616C17.9187 45.9616 17.926 45.9616 17.9333 45.9616C17.9406 45.9616 17.9478 45.9616 17.9551 45.9616C17.9623 45.9616 17.9695 45.9616 17.9767 45.9616C17.984 45.9616 17.9911 45.9616 17.9983 45.9616C18.0055 45.9616 18.0127 45.9616 18.0198 45.9616C18.027 45.9616 18.0341 45.9616 18.0412 45.9616C18.0483 45.9616 18.0554 45.9616 18.0625 45.9616C18.0696 45.9616 18.0767 45.9616 18.0837 45.9616C18.0907 45.9616 18.0978 45.9616 18.1048 45.9616C18.1118 45.9616 18.1188 45.9616 18.1258 45.9616C18.1328 45.9616 18.1397 45.9616 18.1467 45.9616C18.1536 45.9616 18.1606 45.9616 18.1675 45.9616C18.1744 45.9616 18.1813 45.9616 18.1882 45.9616C18.1951 45.9616 18.2019 45.9616 18.2088 45.9616C18.2156 45.9616 18.2225 45.9616 18.2293 45.9616C18.2361 45.9616 18.2429 45.9616 18.2497 45.9616C18.2565 45.9616 18.2632 45.9616 18.27 45.9616C18.2767 45.9616 18.2835 45.9616 18.2902 45.9616C18.2969 45.9616 18.3036 45.9616 18.3102 45.9616C18.3169 45.9616 18.3236 45.9616 18.3302 45.9616C18.3369 45.9616 18.3435 45.9616 18.3501 45.9616C18.3567 45.9616 18.3633 45.9616 18.3699 45.9616C18.3764 45.9616 18.383 45.9616 18.3895 45.9616C18.3961 45.9616 18.4026 45.9616 18.4091 45.9616C18.4156 45.9616 18.4221 45.9616 18.4286 45.9616C18.435 45.9616 18.4415 45.9616 18.4479 45.9616C18.4543 45.9616 18.4607 45.9616 18.4671 45.9616C18.4735 45.9616 18.4799 45.9616 18.4863 45.9616C18.4926 45.9616 18.499 45.9616 18.5053 45.9616C18.5116 45.9616 18.5179 45.9616 18.5242 45.9616C18.5305 45.9616 18.5367 45.9616 18.543 45.9616C18.5492 45.9616 18.5555 45.9616 18.5617 45.9616C18.5679 45.9616 18.5741 45.9616 18.5803 45.9616C18.5864 45.9616 18.5926 45.9616 18.5987 45.9616C18.6049 45.9616 18.611 45.9616 18.6171 45.9616C18.6232 45.9616 18.6292 45.9616 18.6353 45.9616C18.6414 45.9616 18.6474 45.9616 18.6534 45.9616C18.6595 45.9616 18.6655 45.9616 18.6715 45.9616C18.6774 45.9616 18.6834 45.9616 18.6894 45.9616C18.6953 45.9616 18.7012 45.9616 18.7071 45.9616C18.713 45.9616 18.7189 45.9616 18.7248 45.9616C18.7307 45.9616 18.7365 45.9616 18.7424 45.9616C18.7482 45.9616 18.754 45.9616 18.7598 45.9616C18.7656 45.9616 18.7714 45.9616 18.7771 45.9616C18.7829 45.9616 18.7886 45.9616 18.7943 45.9616C18.8 45.9616 18.8057 45.9616 18.8114 45.9616C18.8171 45.9616 18.8227 45.9616 18.8284 45.9616C18.834 45.9616 18.8396 45.9616 18.8452 45.9616C18.8508 45.9616 18.8564 45.9616 18.862 45.9616C18.8675 45.9616 18.8731 45.9616 18.8786 45.9616V43.9616C18.8731 43.9616 18.8675 43.9616 18.862 43.9616C18.8564 43.9616 18.8508 43.9616 18.8452 43.9616C18.8396 43.9616 18.834 43.9616 18.8284 43.9616C18.8227 43.9616 18.8171 43.9616 18.8114 43.9616C18.8057 43.9616 18.8 43.9616 18.7943 43.9616C18.7886 43.9616 18.7829 43.9616 18.7771 43.9616C18.7714 43.9616 18.7656 43.9616 18.7598 43.9616C18.754 43.9616 18.7482 43.9616 18.7424 43.9616C18.7365 43.9616 18.7307 43.9616 18.7248 43.9616C18.7189 43.9616 18.713 43.9616 18.7071 43.9616C18.7012 43.9616 18.6953 43.9616 18.6894 43.9616C18.6834 43.9616 18.6774 43.9616 18.6715 43.9616C18.6655 43.9616 18.6595 43.9616 18.6534 43.9616C18.6474 43.9616 18.6414 43.9616 18.6353 43.9616C18.6292 43.9616 18.6232 43.9616 18.6171 43.9616C18.611 43.9616 18.6049 43.9616 18.5987 43.9616C18.5926 43.9616 18.5864 43.9616 18.5803 43.9616C18.5741 43.9616 18.5679 43.9616 18.5617 43.9616C18.5555 43.9616 18.5492 43.9616 18.543 43.9616C18.5367 43.9616 18.5305 43.9616 18.5242 43.9616C18.5179 43.9616 18.5116 43.9616 18.5053 43.9616C18.499 43.9616 18.4926 43.9616 18.4863 43.9616C18.4799 43.9616 18.4735 43.9616 18.4671 43.9616C18.4607 43.9616 18.4543 43.9616 18.4479 43.9616C18.4415 43.9616 18.435 43.9616 18.4286 43.9616C18.4221 43.9616 18.4156 43.9616 18.4091 43.9616C18.4026 43.9616 18.3961 43.9616 18.3895 43.9616C18.383 43.9616 18.3764 43.9616 18.3699 43.9616C18.3633 43.9616 18.3567 43.9616 18.3501 43.9616C18.3435 43.9616 18.3369 43.9616 18.3302 43.9616C18.3236 43.9616 18.3169 43.9616 18.3102 43.9616C18.3036 43.9616 18.2969 43.9616 18.2902 43.9616C18.2835 43.9616 18.2767 43.9616 18.27 43.9616C18.2632 43.9616 18.2565 43.9616 18.2497 43.9616C18.2429 43.9616 18.2361 43.9616 18.2293 43.9616C18.2225 43.9616 18.2156 43.9616 18.2088 43.9616C18.2019 43.9616 18.1951 43.9616 18.1882 43.9616C18.1813 43.9616 18.1744 43.9616 18.1675 43.9616C18.1606 43.9616 18.1536 43.9616 18.1467 43.9616C18.1397 43.9616 18.1328 43.9616 18.1258 43.9616C18.1188 43.9616 18.1118 43.9616 18.1048 43.9616C18.0978 43.9616 18.0907 43.9616 18.0837 43.9616C18.0767 43.9616 18.0696 43.9616 18.0625 43.9616C18.0554 43.9616 18.0483 43.9616 18.0412 43.9616C18.0341 43.9616 18.027 43.9616 18.0198 43.9616C18.0127 43.9616 18.0055 43.9616 17.9983 43.9616C17.9911 43.9616 17.984 43.9616 17.9767 43.9616C17.9695 43.9616 17.9623 43.9616 17.9551 43.9616C17.9478 43.9616 17.9406 43.9616 17.9333 43.9616C17.926 43.9616 17.9187 43.9616 17.9114 43.9616C17.9041 43.9616 17.8968 43.9616 17.8894 43.9616C17.8821 43.9616 17.8748 43.9616 17.8674 43.9616C17.86 43.9616 17.8526 43.9616 17.8452 43.9616C17.8378 43.9616 17.8304 43.9616 17.823 43.9616C17.8156 43.9616 17.8081 43.9616 17.8007 43.9616C17.7932 43.9616 17.7857 43.9616 17.7782 43.9616C17.7707 43.9616 17.7632 43.9616 17.7557 43.9616C17.7482 43.9616 17.7406 43.9616 17.7331 43.9616C17.7255 43.9616 17.718 43.9616 17.7104 43.9616C17.7028 43.9616 17.6952 43.9616 17.6876 43.9616C17.68 43.9616 17.6724 43.9616 17.6647 43.9616C17.6571 43.9616 17.6494 43.9616 17.6418 43.9616C17.6341 43.9616 17.6264 43.9616 17.6187 43.9616C17.611 43.9616 17.6033 43.9616 17.5956 43.9616C17.5878 43.9616 17.5801 43.9616 17.5723 43.9616C17.5646 43.9616 17.5568 43.9616 17.549 43.9616C17.5412 43.9616 17.5334 43.9616 17.5256 43.9616C17.5178 43.9616 17.51 43.9616 17.5021 43.9616C17.4943 43.9616 17.4864 43.9616 17.4785 43.9616C17.4707 43.9616 17.4628 43.9616 17.4549 43.9616C17.447 43.9616 17.4391 43.9616 17.4311 43.9616C17.4232 43.9616 17.4153 43.9616 17.4073 43.9616C17.3994 43.9616 17.3914 43.9616 17.3834 43.9616C17.3754 43.9616 17.3674 43.9616 17.3594 43.9616C17.3514 43.9616 17.3434 43.9616 17.3354 43.9616C17.3273 43.9616 17.3193 43.9616 17.3112 43.9616C17.3031 43.9616 17.2951 43.9616 17.287 43.9616C17.2789 43.9616 17.2708 43.9616 17.2627 43.9616C17.2545 43.9616 17.2464 43.9616 17.2383 43.9616C17.2301 43.9616 17.222 43.9616 17.2138 43.9616C17.2056 43.9616 17.1974 43.9616 17.1893 43.9616C17.1811 43.9616 17.1728 43.9616 17.1646 43.9616C17.1564 43.9616 17.1482 43.9616 17.1399 43.9616C17.1317 43.9616 17.1234 43.9616 17.1151 43.9616C17.1069 43.9616 17.0986 43.9616 17.0903 43.9616C17.082 43.9616 17.0737 43.9616 17.0653 43.9616C17.057 43.9616 17.0487 43.9616 17.0403 43.9616C17.032 43.9616 17.0236 43.9616 17.0153 43.9616C17.0069 43.9616 16.9985 43.9616 16.9901 43.9616C16.9817 43.9616 16.9733 43.9616 16.9649 43.9616C16.9564 43.9616 16.948 43.9616 16.9396 43.9616C16.9311 43.9616 16.9226 43.9616 16.9142 43.9616C16.9057 43.9616 16.8972 43.9616 16.8887 43.9616C16.8802 43.9616 16.8717 43.9616 16.8632 43.9616C16.8547 43.9616 16.8462 43.9616 16.8376 43.9616C16.8291 43.9616 16.8205 43.9616 16.8119 43.9616C16.8034 43.9616 16.7948 43.9616 16.7862 43.9616C16.7776 43.9616 16.769 43.9616 16.7604 43.9616C16.7518 43.9616 16.7432 43.9616 16.7345 43.9616C16.7259 43.9616 16.7172 43.9616 16.7086 43.9616C16.6999 43.9616 16.6913 43.9616 16.6826 43.9616C16.6739 43.9616 16.6652 43.9616 16.6565 43.9616C16.6478 43.9616 16.6391 43.9616 16.6304 43.9616C16.6216 43.9616 16.6129 43.9616 16.6042 43.9616C16.5954 43.9616 16.5866 43.9616 16.5779 43.9616C16.5691 43.9616 16.5603 43.9616 16.5515 43.9616C16.5427 43.9616 16.5339 43.9616 16.5251 43.9616C16.5163 43.9616 16.5075 43.9616 16.4987 43.9616C16.4898 43.9616 16.481 43.9616 16.4721 43.9616C16.4633 43.9616 16.4544 43.9616 16.4455 43.9616C16.4366 43.9616 16.4278 43.9616 16.4189 43.9616C16.41 43.9616 16.4011 43.9616 16.3921 43.9616C16.3832 43.9616 16.3743 43.9616 16.3654 43.9616C16.3564 43.9616 16.3475 43.9616 16.3385 43.9616C16.3295 43.9616 16.3206 43.9616 16.3116 43.9616C16.3026 43.9616 16.2936 43.9616 16.2846 43.9616C16.2756 43.9616 16.2666 43.9616 16.2576 43.9616C16.2486 43.9616 16.2396 43.9616 16.2305 43.9616C16.2215 43.9616 16.2124 43.9616 16.2034 43.9616C16.1943 43.9616 16.1853 43.9616 16.1762 43.9616C16.1671 43.9616 16.158 43.9616 16.1489 43.9616C16.1398 43.9616 16.1307 43.9616 16.1216 43.9616C16.1125 43.9616 16.1034 43.9616 16.0942 43.9616C16.0851 43.9616 16.0759 43.9616 16.0668 43.9616C16.0576 43.9616 16.0485 43.9616 16.0393 43.9616C16.0301 43.9616 16.021 43.9616 16.0118 43.9616C16.0026 43.9616 15.9934 43.9616 15.9842 43.9616C15.975 43.9616 15.9658 43.9616 15.9565 43.9616C15.9473 43.9616 15.9381 43.9616 15.9288 43.9616C15.9196 43.9616 15.9103 43.9616 15.9011 43.9616C15.8918 43.9616 15.8825 43.9616 15.8733 43.9616C15.864 43.9616 15.8547 43.9616 15.8454 43.9616C15.8361 43.9616 15.8268 43.9616 15.8175 43.9616C15.8082 43.9616 15.7989 43.9616 15.7895 43.9616C15.7802 43.9616 15.7709 43.9616 15.7615 43.9616C15.7522 43.9616 15.7428 43.9616 15.7335 43.9616C15.7241 43.9616 15.7147 43.9616 15.7054 43.9616C15.696 43.9616 15.6866 43.9616 15.6772 43.9616C15.6678 43.9616 15.6584 43.9616 15.649 43.9616C15.6396 43.9616 15.6302 43.9616 15.6208 43.9616C15.6113 43.9616 15.6019 43.9616 15.5925 43.9616C15.583 43.9616 15.5736 43.9616 15.5641 43.9616C15.5547 43.9616 15.5452 43.9616 15.5357 43.9616C15.5262 43.9616 15.5168 43.9616 15.5073 43.9616C15.4978 43.9616 15.4883 43.9616 15.4788 43.9616C15.4693 43.9616 15.4598 43.9616 15.4503 43.9616C15.4408 43.9616 15.4312 43.9616 15.4217 43.9616C15.4122 43.9616 15.4026 43.9616 15.3931 43.9616C15.3835 43.9616 15.374 43.9616 15.3644 43.9616C15.3549 43.9616 15.3453 43.9616 15.3357 43.9616C15.3262 43.9616 15.3166 43.9616 15.307 43.9616C15.2974 43.9616 15.2878 43.9616 15.2782 43.9616C15.2686 43.9616 15.259 43.9616 15.2494 43.9616C15.2398 43.9616 15.2301 43.9616 15.2205 43.9616C15.2109 43.9616 15.2013 43.9616 15.1916 43.9616C15.182 43.9616 15.1723 43.9616 15.1627 43.9616C15.153 43.9616 15.1434 43.9616 15.1337 43.9616C15.124 43.9616 15.1144 43.9616 15.1047 43.9616C15.095 43.9616 15.0853 43.9616 15.0756 43.9616C15.0659 43.9616 15.0562 43.9616 15.0465 43.9616C15.0368 43.9616 15.0271 43.9616 15.0174 43.9616C15.0077 43.9616 14.998 43.9616 14.9882 43.9616C14.9785 43.9616 14.9688 43.9616 14.959 43.9616C14.9493 43.9616 14.9395 43.9616 14.9298 43.9616C14.92 43.9616 14.9103 43.9616 14.9005 43.9616C14.8908 43.9616 14.881 43.9616 14.8712 43.9616C14.8614 43.9616 14.8517 43.9616 14.8419 43.9616C14.8321 43.9616 14.8223 43.9616 14.8125 43.9616C14.8027 43.9616 14.7929 43.9616 14.7831 43.9616C14.7733 43.9616 14.7635 43.9616 14.7537 43.9616C14.7439 43.9616 14.734 43.9616 14.7242 43.9616C14.7144 43.9616 14.7045 43.9616 14.6947 43.9616C14.6849 43.9616 14.675 43.9616 14.6652 43.9616C14.6553 43.9616 14.6455 43.9616 14.6356 43.9616C14.6258 43.9616 14.6159 43.9616 14.606 43.9616C14.5962 43.9616 14.5863 43.9616 14.5764 43.9616C14.5665 43.9616 14.5567 43.9616 14.5468 43.9616C14.5369 43.9616 14.527 43.9616 14.5171 43.9616C14.5072 43.9616 14.4973 43.9616 14.4874 43.9616C14.4775 43.9616 14.4676 43.9616 14.4577 43.9616C14.4478 43.9616 14.4379 43.9616 14.4279 43.9616C14.418 43.9616 14.4081 43.9616 14.3982 43.9616C14.3882 43.9616 14.3783 43.9616 14.3684 43.9616C14.3584 43.9616 14.3485 43.9616 14.3385 43.9616C14.3286 43.9616 14.3186 43.9616 14.3087 43.9616C14.2987 43.9616 14.2888 43.9616 14.2788 43.9616C14.2689 43.9616 14.2589 43.9616 14.2489 43.9616C14.239 43.9616 14.229 43.9616 14.219 43.9616C14.209 43.9616 14.199 43.9616 14.1891 43.9616C14.1791 43.9616 14.1691 43.9616 14.1591 43.9616C14.1491 43.9616 14.1391 43.9616 14.1291 43.9616C14.1191 43.9616 14.1091 43.9616 14.0991 43.9616C14.0891 43.9616 14.0791 43.9616 14.0691 43.9616C14.0591 43.9616 14.0491 43.9616 14.0391 43.9616C14.029 43.9616 14.019 43.9616 14.009 43.9616C13.999 43.9616 13.989 43.9616 13.9789 43.9616C13.9689 43.9616 13.9589 43.9616 13.9488 43.9616C13.9388 43.9616 13.9288 43.9616 13.9187 43.9616C13.9087 43.9616 13.8986 43.9616 13.8886 43.9616C13.8785 43.9616 13.8685 43.9616 13.8584 43.9616C13.8484 43.9616 13.8383 43.9616 13.8283 43.9616C13.8182 43.9616 13.8082 43.9616 13.7981 43.9616C13.788 43.9616 13.778 43.9616 13.7679 43.9616C13.7579 43.9616 13.7478 43.9616 13.7377 43.9616C13.7276 43.9616 13.7176 43.9616 13.7075 43.9616C13.6974 43.9616 13.6873 43.9616 13.6773 43.9616C13.6672 43.9616 13.6571 43.9616 13.647 43.9616C13.6369 43.9616 13.6269 43.9616 13.6168 43.9616C13.6067 43.9616 13.5966 43.9616 13.5865 43.9616C13.5764 43.9616 13.5663 43.9616 13.5562 43.9616C13.5461 43.9616 13.536 43.9616 13.5259 43.9616C13.5158 43.9616 13.5057 43.9616 13.4956 43.9616C13.4855 43.9616 13.4754 43.9616 13.4653 43.9616C13.4552 43.9616 13.4451 43.9616 13.435 43.9616C13.4249 43.9616 13.4148 43.9616 13.4047 43.9616C13.3946 43.9616 13.3845 43.9616 13.3744 43.9616C13.3643 43.9616 13.3542 43.9616 13.344 43.9616C13.3339 43.9616 13.3238 43.9616 13.3137 43.9616C13.3036 43.9616 13.2935 43.9616 13.2833 43.9616C13.2732 43.9616 13.2631 43.9616 13.253 43.9616C13.2429 43.9616 13.2328 43.9616 13.2226 43.9616C13.2125 43.9616 13.2024 43.9616 13.1923 43.9616C13.1821 43.9616 13.172 43.9616 13.1619 43.9616C13.1518 43.9616 13.1417 43.9616 13.1315 43.9616C13.1214 43.9616 13.1113 43.9616 13.1012 43.9616C13.091 43.9616 13.0809 43.9616 13.0708 43.9616C13.0606 43.9616 13.0505 43.9616 13.0404 43.9616C13.0303 43.9616 13.0201 43.9616 13.01 43.9616C12.9999 43.9616 12.9898 43.9616 12.9796 43.9616C12.9695 43.9616 12.9594 43.9616 12.9493 43.9616C12.9391 43.9616 12.929 43.9616 12.9189 43.9616C12.9087 43.9616 12.8986 43.9616 12.8885 43.9616C12.8784 43.9616 12.8682 43.9616 12.8581 43.9616C12.848 43.9616 12.8379 43.9616 12.8277 43.9616C12.8176 43.9616 12.8075 43.9616 12.7974 43.9616C12.7872 43.9616 12.7771 43.9616 12.767 43.9616C12.7569 43.9616 12.7467 43.9616 12.7366 43.9616C12.7265 43.9616 12.7164 43.9616 12.7063 43.9616C12.6961 43.9616 12.686 43.9616 12.6759 43.9616C12.6658 43.9616 12.6557 43.9616 12.6455 43.9616C12.6354 43.9616 12.6253 43.9616 12.6152 43.9616C12.6051 43.9616 12.595 43.9616 12.5848 43.9616C12.5747 43.9616 12.5646 43.9616 12.5545 43.9616C12.5444 43.9616 12.5343 43.9616 12.5242 43.9616C12.5141 43.9616 12.504 43.9616 12.4938 43.9616C12.4837 43.9616 12.4736 43.9616 12.4635 43.9616C12.4534 43.9616 12.4433 43.9616 12.4332 43.9616C12.4231 43.9616 12.413 43.9616 12.4029 43.9616C12.3928 43.9616 12.3827 43.9616 12.3726 43.9616C12.3625 43.9616 12.3525 43.9616 12.3424 43.9616C12.3323 43.9616 12.3222 43.9616 12.3121 43.9616C12.302 43.9616 12.2919 43.9616 12.2818 43.9616C12.2718 43.9616 12.2617 43.9616 12.2516 43.9616C12.2415 43.9616 12.2314 43.9616 12.2214 43.9616C12.2113 43.9616 12.2012 43.9616 12.1912 43.9616C12.1811 43.9616 12.171 43.9616 12.1609 43.9616C12.1509 43.9616 12.1408 43.9616 12.1308 43.9616C12.1207 43.9616 12.1106 43.9616 12.1006 43.9616C12.0905 43.9616 12.0805 43.9616 12.0704 43.9616C12.0604 43.9616 12.0503 43.9616 12.0403 43.9616C12.0302 43.9616 12.0202 43.9616 12.0101 43.9616C12.0001 43.9616 11.9901 43.9616 11.98 43.9616C11.97 43.9616 11.96 43.9616 11.9499 43.9616C11.9399 43.9616 11.9299 43.9616 11.9199 43.9616C11.9098 43.9616 11.8998 43.9616 11.8898 43.9616C11.8798 43.9616 11.8698 43.9616 11.8597 43.9616C11.8497 43.9616 11.8397 43.9616 11.8297 43.9616C11.8197 43.9616 11.8097 43.9616 11.7997 43.9616C11.7897 43.9616 11.7797 43.9616 11.7697 43.9616C11.7597 43.9616 11.7498 43.9616 11.7398 43.9616C11.7298 43.9616 11.7198 43.9616 11.7098 43.9616C11.6999 43.9616 11.6899 43.9616 11.6799 43.9616C11.6699 43.9616 11.66 43.9616 11.65 43.9616C11.6401 43.9616 11.6301 43.9616 11.6201 43.9616C11.6102 43.9616 11.6002 43.9616 11.5903 43.9616C11.5803 43.9616 11.5704 43.9616 11.5605 43.9616C11.5505 43.9616 11.5406 43.9616 11.5307 43.9616C11.5207 43.9616 11.5108 43.9616 11.5009 43.9616C11.491 43.9616 11.481 43.9616 11.4711 43.9616C11.4612 43.9616 11.4513 43.9616 11.4414 43.9616C11.4315 43.9616 11.4216 43.9616 11.4117 43.9616C11.4018 43.9616 11.3919 43.9616 11.382 43.9616C11.3721 43.9616 11.3623 43.9616 11.3524 43.9616C11.3425 43.9616 11.3326 43.9616 11.3228 43.9616C11.3129 43.9616 11.303 43.9616 11.2932 43.9616C11.2833 43.9616 11.2735 43.9616 11.2636 43.9616C11.2538 43.9616 11.2439 43.9616 11.2341 43.9616C11.2242 43.9616 11.2144 43.9616 11.2046 43.9616C11.1948 43.9616 11.1849 43.9616 11.1751 43.9616C11.1653 43.9616 11.1555 43.9616 11.1457 43.9616C11.1359 43.9616 11.1261 43.9616 11.1163 43.9616C11.1065 43.9616 11.0967 43.9616 11.0869 43.9616C11.0771 43.9616 11.0673 43.9616 11.0576 43.9616C11.0478 43.9616 11.038 43.9616 11.0282 43.9616C11.0185 43.9616 11.0087 43.9616 10.999 43.9616C10.9892 43.9616 10.9795 43.9616 10.9697 43.9616C10.96 43.9616 10.9503 43.9616 10.9405 43.9616C10.9308 43.9616 10.9211 43.9616 10.9114 43.9616C10.9016 43.9616 10.8919 43.9616 10.8822 43.9616C10.8725 43.9616 10.8628 43.9616 10.8531 43.9616C10.8434 43.9616 10.8337 43.9616 10.8241 43.9616C10.8144 43.9616 10.8047 43.9616 10.795 43.9616C10.7854 43.9616 10.7757 43.9616 10.7661 43.9616C10.7564 43.9616 10.7467 43.9616 10.7371 43.9616C10.7275 43.9616 10.7178 43.9616 10.7082 43.9616C10.6986 43.9616 10.6889 43.9616 10.6793 43.9616C10.6697 43.9616 10.6601 43.9616 10.6505 43.9616C10.6409 43.9616 10.6313 43.9616 10.6217 43.9616C10.6121 43.9616 10.6025 43.9616 10.593 43.9616C10.5834 43.9616 10.5738 43.9616 10.5643 43.9616C10.5547 43.9616 10.5452 43.9616 10.5356 43.9616C10.5261 43.9616 10.5165 43.9616 10.507 43.9616C10.4975 43.9616 10.4879 43.9616 10.4784 43.9616C10.4689 43.9616 10.4594 43.9616 10.4499 43.9616C10.4404 43.9616 10.4309 43.9616 10.4214 43.9616C10.4119 43.9616 10.4024 43.9616 10.3929 43.9616C10.3835 43.9616 10.374 43.9616 10.3646 43.9616C10.3551 43.9616 10.3456 43.9616 10.3362 43.9616C10.3268 43.9616 10.3173 43.9616 10.3079 43.9616C10.2985 43.9616 10.289 43.9616 10.2796 43.9616C10.2702 43.9616 10.2608 43.9616 10.2514 43.9616C10.242 43.9616 10.2326 43.9616 10.2233 43.9616C10.2139 43.9616 10.2045 43.9616 10.1952 43.9616C10.1858 43.9616 10.1764 43.9616 10.1671 43.9616C10.1577 43.9616 10.1484 43.9616 10.1391 43.9616C10.1297 43.9616 10.1204 43.9616 10.1111 43.9616C10.1018 43.9616 10.0925 43.9616 10.0832 43.9616C10.0739 43.9616 10.0646 43.9616 10.0553 43.9616C10.046 43.9616 10.0368 43.9616 10.0275 43.9616C10.0183 43.9616 10.009 43.9616 9.99976 43.9616C9.99051 43.9616 9.98128 43.9616 9.97205 43.9616C9.96282 43.9616 9.9536 43.9616 9.9444 43.9616C9.93519 43.9616 9.92599 43.9616 9.91679 43.9616C9.9076 43.9616 9.89842 43.9616 9.88925 43.9616C9.88008 43.9616 9.87091 43.9616 9.86176 43.9616C9.8526 43.9616 9.84346 43.9616 9.83432 43.9616C9.82519 43.9616 9.81606 43.9616 9.80694 43.9616C9.79783 43.9616 9.78872 43.9616 9.77962 43.9616C9.77052 43.9616 9.76143 43.9616 9.75235 43.9616C9.74328 43.9616 9.73421 43.9616 9.72515 43.9616C9.71609 43.9616 9.70704 43.9616 9.698 43.9616C9.68896 43.9616 9.67992 43.9616 9.6709 43.9616C9.66188 43.9616 9.65287 43.9616 9.64387 43.9616C9.63487 43.9616 9.62588 43.9616 9.6169 43.9616C9.60792 43.9616 9.59894 43.9616 9.58998 43.9616C9.58102 43.9616 9.57207 43.9616 9.56313 43.9616C9.55419 43.9616 9.54526 43.9616 9.53634 43.9616C9.52742 43.9616 9.51851 43.9616 9.50961 43.9616C9.50071 43.9616 9.49182 43.9616 9.48294 43.9616C9.47406 43.9616 9.46519 43.9616 9.45634 43.9616C9.44748 43.9616 9.43863 43.9616 9.42979 43.9616C9.42096 43.9616 9.41213 43.9616 9.40332 43.9616C9.3945 43.9616 9.3857 43.9616 9.3769 43.9616C9.36811 43.9616 9.35932 43.9616 9.35055 43.9616C9.34178 43.9616 9.33302 43.9616 9.32427 43.9616C9.31552 43.9616 9.30678 43.9616 9.29805 43.9616C9.28932 43.9616 9.28061 43.9616 9.2719 43.9616C9.26319 43.9616 9.2545 43.9616 9.24582 43.9616C9.23713 43.9616 9.22846 43.9616 9.2198 43.9616C9.21114 43.9616 9.20249 43.9616 9.19385 43.9616C9.18521 43.9616 9.17658 43.9616 9.16797 43.9616C9.15935 43.9616 9.15075 43.9616 9.14216 43.9616C9.13356 43.9616 9.12498 43.9616 9.11641 43.9616C9.10784 43.9616 9.09929 43.9616 9.09074 43.9616C9.0822 43.9616 9.07366 43.9616 9.06514 43.9616C9.05662 43.9616 9.04811 43.9616 9.03961 43.9616C9.03111 43.9616 9.02262 43.9616 9.01415 43.9616C9.00568 43.9616 8.99721 43.9616 8.98876 43.9616C8.98031 43.9616 8.97188 43.9616 8.96345 43.9616C8.95502 43.9616 8.94661 43.9616 8.93821 43.9616C8.92981 43.9616 8.92142 43.9616 8.91304 43.9616C8.90467 43.9616 8.8963 43.9616 8.88795 43.9616C8.8796 43.9616 8.87126 43.9616 8.86293 43.9616C8.8546 43.9616 8.84629 43.9616 8.83799 43.9616C8.82969 43.9616 8.8214 43.9616 8.81312 43.9616C8.80485 43.9616 8.79658 43.9616 8.78833 43.9616C8.78008 43.9616 8.77184 43.9616 8.76362 43.9616C8.75539 43.9616 8.74718 43.9616 8.73898 43.9616C8.73078 43.9616 8.7226 43.9616 8.71442 43.9616C8.70625 43.9616 8.69809 43.9616 8.68994 43.9616C8.6818 43.9616 8.67366 43.9616 8.66554 43.9616C8.65742 43.9616 8.64932 43.9616 8.64122 43.9616C8.63313 43.9616 8.62505 43.9616 8.61698 43.9616C8.60891 43.9616 8.60086 43.9616 8.59282 43.9616C8.58478 43.9616 8.57675 43.9616 8.56874 43.9616C8.56073 43.9616 8.55273 43.9616 8.54474 43.9616C8.53676 43.9616 8.52878 43.9616 8.52083 43.9616C8.51287 43.9616 8.50492 43.9616 8.49699 43.9616C8.48906 43.9616 8.48115 43.9616 8.47324 43.9616C8.46534 43.9616 8.45745 43.9616 8.44958 43.9616C8.4417 43.9616 8.43384 43.9616 8.42599 43.9616C8.41815 43.9616 8.41032 43.9616 8.4025 43.9616C8.39468 43.9616 8.38687 43.9616 8.37908 43.9616C8.37129 43.9616 8.36352 43.9616 8.35576 43.9616C8.348 43.9616 8.34025 43.9616 8.33252 43.9616C8.32479 43.9616 8.31707 43.9616 8.30937 43.9616C8.30166 43.9616 8.29397 43.9616 8.2863 43.9616C8.27863 43.9616 8.27097 43.9616 8.26332 43.9616C8.25568 43.9616 8.24805 43.9616 8.24043 43.9616C8.23282 43.9616 8.22522 43.9616 8.21763 43.9616C8.21005 43.9616 8.20248 43.9616 8.19492 43.9616C8.18737 43.9616 8.17983 43.9616 8.1723 43.9616C8.16478 43.9616 8.15727 43.9616 8.14977 43.9616C8.14228 43.9616 8.1348 43.9616 8.12733 43.9616C8.11987 43.9616 8.11242 43.9616 8.10498 43.9616C8.09755 43.9616 8.09013 43.9616 8.08273 43.9616C8.07532 43.9616 8.06794 43.9616 8.06056 43.9616C8.05319 43.9616 8.04584 43.9616 8.03849 43.9616C8.03115 43.9616 8.02383 43.9616 8.01652 43.9616C8.00921 43.9616 8.00191 43.9616 7.99464 43.9616C7.98736 43.9616 7.9801 43.9616 7.97285 43.9616C7.9656 43.9616 7.95837 43.9616 7.95116 43.9616C7.94394 43.9616 7.93674 43.9616 7.92956 43.9616C7.92238 43.9616 7.91521 43.9616 7.90806 43.9616C7.90091 43.9616 7.89378 43.9616 7.88666 43.9616C7.87954 43.9616 7.87244 43.9616 7.86535 43.9616C7.85827 43.9616 7.8512 43.9616 7.84414 43.9616C7.83709 43.9616 7.83006 43.9616 7.82304 43.9616C7.81602 43.9616 7.80901 43.9616 7.80203 43.9616C7.79504 43.9616 7.78807 43.9616 7.78111 43.9616C7.77416 43.9616 7.76722 43.9616 7.7603 43.9616C7.75338 43.9616 7.74648 43.9616 7.73959 43.9616C7.73271 43.9616 7.72584 43.9616 7.71898 43.9616C7.71213 43.9616 7.70529 43.9616 7.69848 43.9616C7.69166 43.9616 7.68485 43.9616 7.67807 43.9616C7.67128 43.9616 7.66452 43.9616 7.65777 43.9616C7.65102 43.9616 7.64428 43.9616 7.63757 43.9616C7.63085 43.9616 7.62415 43.9616 7.61747 43.9616C7.61079 43.9616 7.60412 43.9616 7.59748 43.9616C7.59083 43.9616 7.5842 43.9616 7.57759 43.9616C7.57098 43.9616 7.56438 43.9616 7.55781 43.9616C7.55123 43.9616 7.54467 43.9616 7.53813 43.9616C7.53159 43.9616 7.52507 43.9616 7.51856 43.9616C7.51206 43.9616 7.50557 43.9616 7.4991 43.9616C7.49263 43.9616 7.48618 43.9616 7.47974 43.9616C7.47331 43.9616 7.46689 43.9616 7.46049 43.9616C7.4541 43.9616 7.44772 43.9616 7.44135 43.9616C7.43499 43.9616 7.42865 43.9616 7.42232 43.9616C7.416 43.9616 7.40969 43.9616 7.4034 43.9616C7.39711 43.9616 7.39084 43.9616 7.38459 43.9616C7.37834 43.9616 7.3721 43.9616 7.36589 43.9616C7.35967 43.9616 7.35348 43.9616 7.3473 43.9616C7.34112 43.9616 7.33496 43.9616 7.32882 43.9616C7.32268 43.9616 7.31656 43.9616 7.31045 43.9616C7.30435 43.9616 7.29826 43.9616 7.2922 43.9616C7.28613 43.9616 7.28009 43.9616 7.27406 43.9616C7.26803 43.9616 7.26202 43.9616 7.25603 43.9616C7.25004 43.9616 7.24407 43.9616 7.23812 43.9616C7.23217 43.9616 7.22623 43.9616 7.22032 43.9616C7.21441 43.9616 7.20851 43.9616 7.20264 43.9616C7.19676 43.9616 7.19091 43.9616 7.18507 43.9616C7.17923 43.9616 7.17342 43.9616 7.16762 43.9616C7.16182 43.9616 7.15604 43.9616 7.15028 43.9616C7.14453 43.9616 7.13879 43.9616 7.13307 43.9616C7.12735 43.9616 7.12165 43.9616 7.11597 43.9616C7.11029 43.9616 7.10463 43.9616 7.09899 43.9616C7.09335 43.9616 7.08773 43.9616 7.08213 43.9616C7.07652 43.9616 7.07094 43.9616 7.06538 43.9616C7.05982 43.9616 7.05428 43.9616 7.04876 43.9616C7.04324 43.9616 7.03774 43.9616 7.03226 43.9616C7.02678 43.9616 7.02132 43.9616 7.01588 43.9616C7.01044 43.9616 7.00502 43.9616 6.99962 43.9616C6.99422 43.9616 6.98884 43.9616 6.98348 43.9616C6.97812 43.9616 6.97278 43.9616 6.96746 43.9616C6.96215 43.9616 6.95685 43.9616 6.95157 43.9616C6.9463 43.9616 6.94104 43.9616 6.9358 43.9616C6.93057 43.9616 6.92535 43.9616 6.92016 43.9616C6.91497 43.9616 6.90979 43.9616 6.90464 43.9616C6.89949 43.9616 6.89436 43.9616 6.88925 43.9616C6.88414 43.9616 6.87905 43.9616 6.87398 43.9616C6.86891 43.9616 6.86386 43.9616 6.85883 43.9616C6.85381 43.9616 6.8488 43.9616 6.84382 43.9616C6.83884 43.9616 6.83387 43.9616 6.82893 43.9616C6.82399 43.9616 6.81907 43.9616 6.81417 43.9616C6.80927 43.9616 6.80439 43.9616 6.79954 43.9616C6.79468 43.9616 6.78985 43.9616 6.78503 43.9616C6.78022 43.9616 6.77543 43.9616 6.77066 43.9616C6.76589 43.9616 6.76114 43.9616 6.75642 43.9616C6.75169 43.9616 6.74699 43.9616 6.7423 43.9616C6.73762 43.9616 6.73296 43.9616 6.72832 43.9616C6.72368 43.9616 6.71906 43.9616 6.71447 43.9616C6.70987 43.9616 6.7053 43.9616 6.70075 43.9616C6.6962 43.9616 6.69167 43.9616 6.68716 43.9616C6.68266 43.9616 6.67817 43.9616 6.67371 43.9616C6.66925 43.9616 6.66481 43.9616 6.66039 43.9616C6.65597 43.9616 6.65158 43.9616 6.6472 43.9616C6.64283 43.9616 6.63848 43.9616 6.63415 43.9616C6.62982 43.9616 6.62552 43.9616 6.62124 43.9616C6.61695 43.9616 6.61269 43.9616 6.60846 43.9616C6.60422 43.9616 6.6 43.9616 6.59581 43.9616C6.59162 43.9616 6.58745 43.9616 6.5833 43.9616C6.57916 43.9616 6.57503 43.9616 6.57093 43.9616C6.56683 43.9616 6.56276 43.9616 6.5587 43.9616C6.55465 43.9616 6.55061 43.9616 6.54661 43.9616C6.5426 43.9616 6.53861 43.9616 6.53465 43.9616C6.53069 43.9616 6.52675 43.9616 6.52284 43.9616C6.51892 43.9616 6.51503 43.9616 6.51116 43.9616C6.50729 43.9616 6.50345 43.9616 6.49962 43.9616C6.4958 43.9616 6.492 43.9616 6.48823 43.9616C6.48445 43.9616 6.4807 43.9616 6.47697 43.9616C6.47325 43.9616 6.46954 43.9616 6.46586 43.9616C6.46218 43.9616 6.45853 43.9616 6.4549 43.9616C6.45126 43.9616 6.44765 43.9616 6.44407 43.9616C6.44048 43.9616 6.43692 43.9616 6.43339 43.9616C6.42985 43.9616 6.42634 43.9616 6.42285 43.9616C6.41936 43.9616 6.4159 43.9616 6.41246 43.9616C6.40902 43.9616 6.4056 43.9616 6.40221 43.9616C6.39882 43.9616 6.39545 43.9616 6.3921 43.9616C6.38876 43.9616 6.38544 43.9616 6.38215 43.9616C6.37885 43.9616 6.37558 43.9616 6.37234 43.9616C6.36909 43.9616 6.36587 43.9616 6.36268 43.9616C6.35948 43.9616 6.35631 43.9616 6.35316 43.9616V45.9616ZM18.8786 15.0166H36.9298V13.0166H18.8786V15.0166ZM19.8786 44.9616V29.4891H17.8786V44.9616H19.8786ZM19.8786 29.4891V14.0166H17.8786V29.4891H19.8786ZM18.8786 30.4891H32.0179V28.4891H18.8786V30.4891Z" fill="black"/>
</svg>
