<svg width="158" height="29" viewBox="0 0 158 29" fill="none" xmlns="http://www.w3.org/2000/svg">
<path d="M48.54 23C48.3267 23 48.14 22.9267 47.98 22.78C47.8333 22.62 47.76 22.4333 47.76 22.22V8.16C47.76 7.93333 47.8333 7.74667 47.98 7.6C48.1267 7.45333 48.3133 7.38 48.54 7.38H57.92C58.1467 7.38 58.3333 7.45333 58.48 7.6C58.6267 7.73333 58.7 7.91333 58.7 8.14C58.7 8.34 58.6267 8.51333 58.48 8.66C58.3333 8.80667 58.1467 8.88 57.92 8.88H49.32V14.4H55.58C55.8067 14.4 55.9933 14.4733 56.14 14.62C56.2867 14.7667 56.36 14.9467 56.36 15.16C56.36 15.3733 56.2867 15.5533 56.14 15.7C55.9933 15.8467 55.8067 15.92 55.58 15.92H49.32V22.22C49.32 22.4333 49.2467 22.62 49.1 22.78C48.9533 22.9267 48.7667 23 48.54 23ZM61.94 16.26C61.98 15.4333 62.1933 14.6933 62.58 14.04C62.98 13.3867 63.4933 12.8733 64.12 12.5C64.76 12.1267 65.4667 11.94 66.24 11.94C66.8533 11.94 67.3267 12.0267 67.66 12.2C67.9933 12.3733 68.12 12.6267 68.04 12.96C67.9867 13.16 67.8933 13.2933 67.76 13.36C67.64 13.4267 67.4867 13.4533 67.3 13.44C67.1267 13.4267 66.9267 13.4133 66.7 13.4C65.9533 13.3333 65.2867 13.4133 64.7 13.64C64.1267 13.8533 63.6667 14.1867 63.32 14.64C62.9867 15.0933 62.82 15.6333 62.82 16.26H61.94ZM62.06 23C61.82 23 61.6333 22.9333 61.5 22.8C61.3667 22.6667 61.3 22.48 61.3 22.24V12.82C61.3 12.58 61.3667 12.3933 61.5 12.26C61.6333 12.1267 61.82 12.06 62.06 12.06C62.3 12.06 62.4867 12.1267 62.62 12.26C62.7533 12.3933 62.82 12.58 62.82 12.82V22.24C62.82 22.48 62.7533 22.6667 62.62 22.8C62.4867 22.9333 62.3 23 62.06 23ZM74.6394 23.1C73.5727 23.1 72.6194 22.86 71.7794 22.38C70.9394 21.9 70.2794 21.24 69.7994 20.4C69.3194 19.56 69.0794 18.6067 69.0794 17.54C69.0794 16.46 69.3194 15.5 69.7994 14.66C70.2794 13.82 70.9394 13.16 71.7794 12.68C72.6194 12.2 73.5727 11.96 74.6394 11.96C75.706 11.96 76.6527 12.2 77.4794 12.68C78.3194 13.16 78.9794 13.82 79.4594 14.66C79.9394 15.5 80.186 16.46 80.1994 17.54C80.1994 18.6067 79.9527 19.56 79.4594 20.4C78.9794 21.24 78.3194 21.9 77.4794 22.38C76.6527 22.86 75.706 23.1 74.6394 23.1ZM74.6394 21.7C75.4127 21.7 76.106 21.52 76.7194 21.16C77.3327 20.8 77.8127 20.3067 78.1594 19.68C78.506 19.0533 78.6794 18.34 78.6794 17.54C78.6794 16.74 78.506 16.0267 78.1594 15.4C77.8127 14.76 77.3327 14.26 76.7194 13.9C76.106 13.54 75.4127 13.36 74.6394 13.36C73.866 13.36 73.1727 13.54 72.5594 13.9C71.946 14.26 71.4594 14.76 71.0994 15.4C70.7527 16.0267 70.5794 16.74 70.5794 17.54C70.5794 18.34 70.7527 19.0533 71.0994 19.68C71.4594 20.3067 71.946 20.8 72.5594 21.16C73.1727 21.52 73.866 21.7 74.6394 21.7ZM85.5545 23C85.0212 23 84.5412 22.8533 84.1145 22.56C83.7012 22.2667 83.3745 21.86 83.1345 21.34C82.9079 20.82 82.7945 20.22 82.7945 19.54V8.14C82.7945 7.91333 82.8612 7.73333 82.9945 7.6C83.1412 7.45333 83.3279 7.38 83.5545 7.38C83.7812 7.38 83.9612 7.45333 84.0945 7.6C84.2412 7.73333 84.3145 7.91333 84.3145 8.14V19.54C84.3145 20.1133 84.4279 20.58 84.6545 20.94C84.8945 21.3 85.1945 21.48 85.5545 21.48H86.0545C86.2545 21.48 86.4145 21.5533 86.5345 21.7C86.6545 21.8333 86.7145 22.0133 86.7145 22.24C86.7145 22.4667 86.6279 22.6533 86.4545 22.8C86.2945 22.9333 86.0812 23 85.8145 23H85.5545ZM89.9391 23C89.6991 23 89.5057 22.9333 89.3591 22.8C89.2257 22.6533 89.1591 22.46 89.1591 22.22V12.84C89.1591 12.6 89.2257 12.4133 89.3591 12.28C89.5057 12.1333 89.6991 12.06 89.9391 12.06C90.1657 12.06 90.3457 12.1333 90.4791 12.28C90.6257 12.4133 90.6991 12.6 90.6991 12.84V22.22C90.6991 22.46 90.6257 22.6533 90.4791 22.8C90.3457 22.9333 90.1657 23 89.9391 23ZM89.9191 9.98C89.6257 9.98 89.3724 9.87333 89.1591 9.66C88.9457 9.44667 88.8391 9.18667 88.8391 8.88C88.8391 8.54667 88.9457 8.28667 89.1591 8.1C89.3857 7.9 89.6457 7.8 89.9391 7.8C90.2191 7.8 90.4657 7.9 90.6791 8.1C90.9057 8.28667 91.0191 8.54667 91.0191 8.88C91.0191 9.18667 90.9124 9.44667 90.6991 9.66C90.4857 9.87333 90.2257 9.98 89.9191 9.98ZM95.8803 19.34L94.9403 18.32L101.78 12.14C101.94 11.9933 102.107 11.9267 102.28 11.94C102.454 11.94 102.614 12.02 102.76 12.18C102.907 12.34 102.974 12.5133 102.96 12.7C102.96 12.8733 102.88 13.0267 102.72 13.16L95.8803 19.34ZM95.3803 23C95.1536 23 94.967 22.9333 94.8203 22.8C94.687 22.6533 94.6203 22.4667 94.6203 22.24V8.14C94.6203 7.91333 94.687 7.73333 94.8203 7.6C94.967 7.45333 95.1536 7.38 95.3803 7.38C95.607 7.38 95.787 7.45333 95.9203 7.6C96.067 7.73333 96.1403 7.91333 96.1403 8.14V22.24C96.1403 22.4667 96.067 22.6533 95.9203 22.8C95.787 22.9333 95.607 23 95.3803 23ZM102.78 22.9C102.607 23.0467 102.427 23.1067 102.24 23.08C102.054 23.0667 101.894 22.9733 101.76 22.8L97.3003 17.32L98.3803 16.36L102.88 21.9C103.014 22.06 103.074 22.2333 103.06 22.42C103.047 22.5933 102.954 22.7533 102.78 22.9ZM111.665 23C111.452 23 111.265 22.9267 111.105 22.78C110.958 22.62 110.885 22.4333 110.885 22.22V8.16C110.885 7.93333 110.958 7.74667 111.105 7.6C111.252 7.45333 111.438 7.38 111.665 7.38H121.045C121.272 7.38 121.458 7.45333 121.605 7.6C121.752 7.73333 121.825 7.91333 121.825 8.14C121.825 8.34 121.752 8.51333 121.605 8.66C121.458 8.80667 121.272 8.88 121.045 8.88H112.445V14.4H118.705C118.932 14.4 119.118 14.4733 119.265 14.62C119.412 14.7667 119.485 14.9467 119.485 15.16C119.485 15.3733 119.412 15.5533 119.265 15.7C119.118 15.8467 118.932 15.92 118.705 15.92H112.445V22.22C112.445 22.4333 112.372 22.62 112.225 22.78C112.078 22.9267 111.892 23 111.665 23ZM129.405 23.1C128.338 23.1 127.385 22.86 126.545 22.38C125.705 21.9 125.045 21.24 124.565 20.4C124.085 19.56 123.845 18.6067 123.845 17.54C123.845 16.46 124.085 15.5 124.565 14.66C125.045 13.82 125.705 13.16 126.545 12.68C127.385 12.2 128.338 11.96 129.405 11.96C130.472 11.96 131.418 12.2 132.245 12.68C133.085 13.16 133.745 13.82 134.225 14.66C134.705 15.5 134.952 16.46 134.965 17.54C134.965 18.6067 134.718 19.56 134.225 20.4C133.745 21.24 133.085 21.9 132.245 22.38C131.418 22.86 130.472 23.1 129.405 23.1ZM129.405 21.7C130.178 21.7 130.872 21.52 131.485 21.16C132.098 20.8 132.578 20.3067 132.925 19.68C133.272 19.0533 133.445 18.34 133.445 17.54C133.445 16.74 133.272 16.0267 132.925 15.4C132.578 14.76 132.098 14.26 131.485 13.9C130.872 13.54 130.178 13.36 129.405 13.36C128.632 13.36 127.938 13.54 127.325 13.9C126.712 14.26 126.225 14.76 125.865 15.4C125.518 16.0267 125.345 16.74 125.345 17.54C125.345 18.34 125.518 19.0533 125.865 19.68C126.225 20.3067 126.712 20.8 127.325 21.16C127.938 21.52 128.632 21.7 129.405 21.7ZM142.24 23C141.533 23 140.9 22.8333 140.34 22.5C139.793 22.1667 139.36 21.7133 139.04 21.14C138.72 20.5533 138.56 19.8867 138.56 19.14V9.36C138.56 9.13333 138.627 8.94667 138.76 8.8C138.907 8.65333 139.093 8.58 139.32 8.58C139.547 8.58 139.733 8.65333 139.88 8.8C140.027 8.94667 140.1 9.13333 140.1 9.36V19.14C140.1 19.82 140.3 20.38 140.7 20.82C141.1 21.2467 141.613 21.46 142.24 21.46H142.78C142.993 21.46 143.167 21.5333 143.3 21.68C143.433 21.8267 143.5 22.0133 143.5 22.24C143.5 22.4667 143.42 22.6533 143.26 22.8C143.1 22.9333 142.9 23 142.66 23H142.24ZM137.26 13.8C137.06 13.8 136.893 13.74 136.76 13.62C136.627 13.4867 136.56 13.3267 136.56 13.14C136.56 12.94 136.627 12.78 136.76 12.66C136.893 12.5267 137.06 12.46 137.26 12.46H142.36C142.56 12.46 142.727 12.5267 142.86 12.66C142.993 12.78 143.06 12.94 143.06 13.14C143.06 13.3267 142.993 13.4867 142.86 13.62C142.727 13.74 142.56 13.8 142.36 13.8H137.26ZM150.987 23.1C149.92 23.1 148.967 22.86 148.127 22.38C147.287 21.9 146.627 21.24 146.147 20.4C145.667 19.56 145.427 18.6067 145.427 17.54C145.427 16.46 145.667 15.5 146.147 14.66C146.627 13.82 147.287 13.16 148.127 12.68C148.967 12.2 149.92 11.96 150.987 11.96C152.054 11.96 153 12.2 153.827 12.68C154.667 13.16 155.327 13.82 155.807 14.66C156.287 15.5 156.534 16.46 156.547 17.54C156.547 18.6067 156.3 19.56 155.807 20.4C155.327 21.24 154.667 21.9 153.827 22.38C153 22.86 152.054 23.1 150.987 23.1ZM150.987 21.7C151.76 21.7 152.454 21.52 153.067 21.16C153.68 20.8 154.16 20.3067 154.507 19.68C154.854 19.0533 155.027 18.34 155.027 17.54C155.027 16.74 154.854 16.0267 154.507 15.4C154.16 14.76 153.68 14.26 153.067 13.9C152.454 13.54 151.76 13.36 150.987 13.36C150.214 13.36 149.52 13.54 148.907 13.9C148.294 14.26 147.807 14.76 147.447 15.4C147.1 16.0267 146.927 16.74 146.927 17.54C146.927 18.34 147.1 19.0533 147.447 19.68C147.807 20.3067 148.294 20.8 148.907 21.16C149.52 21.52 150.214 21.7 150.987 21.7Z" fill="#9A9A9A"/>
<path d="M21.1816 27C20.6293 27 20.1816 27.4477 20.1816 28C20.1816 28.5523 20.6293 29 21.1816 29V27ZM31.5894 24.5307L30.6133 24.3138L31.5894 24.5307ZM27.4414 4.69552L27.4014 3.69632L27.4414 4.69552ZM25.028 4.31843L25.9718 3.98808L25.9337 3.87903L25.8716 3.78155L25.028 4.31843ZM23.9721 2.65921L23.0474 3.03996L23.0811 3.1216L23.1285 3.19608L23.9721 2.65921ZM21.5587 1L21.5587 2.44379e-06L21.5587 1ZM9.26541 1.75419L8.518 1.08983L9.26541 1.75419ZM3.68441 4.99721L4.09477 5.90913L3.68441 4.99721ZM1.19558 8.39107L2.19062 8.49058L1.19558 8.39107ZM1.19558 25.7374L0.198819 25.8178L1.19558 25.7374ZM11.9805 28V29H12.9805V28H11.9805ZM11.9805 8.99441V7.99441H10.9805V8.99441H11.9805ZM21.1816 29H27.2906V27H21.1816V29ZM27.2906 29C28.6096 29 29.8357 28.3066 30.7232 27.5248C31.6017 26.7509 32.3516 25.7106 32.5656 24.7477L30.6133 24.3138C30.5256 24.7083 30.1065 25.4027 29.4012 26.0241C28.7049 26.6375 27.9324 27 27.2906 27V29ZM32.5656 24.7477C32.62 24.5031 32.6472 24.1521 32.6652 23.7898C32.6844 23.4029 32.6961 22.9222 32.7025 22.3752C32.7152 21.2801 32.7067 19.8871 32.6899 18.3824C32.6563 15.361 32.5894 11.8912 32.5894 9.3715H30.5894C30.5894 11.9049 30.6567 15.4114 30.6901 18.4046C30.7068 19.9073 30.7151 21.2811 30.7026 22.352C30.6964 22.888 30.6851 23.34 30.6677 23.6905C30.649 24.0656 30.6259 24.2567 30.6133 24.3138L32.5656 24.7477ZM32.5894 9.3715C32.5894 7.73001 31.9057 6.30111 30.9456 5.29595C30.0019 4.30799 28.703 3.64426 27.4014 3.69632L27.4814 5.69472C28.0652 5.67137 28.8404 5.98756 29.4993 6.67741C30.1419 7.35006 30.5894 8.29686 30.5894 9.3715H32.5894ZM27.4014 3.69632C26.5341 3.73101 26.0815 3.75505 25.7962 3.72526C25.6666 3.71173 25.6888 3.69545 25.7617 3.73873C25.8731 3.80483 25.9449 3.91109 25.9718 3.98808L24.0841 4.64878C24.1991 4.97716 24.4138 5.26437 24.7407 5.45845C25.0291 5.62971 25.3395 5.68845 25.5885 5.71445C26.0604 5.76373 26.7265 5.72492 27.4814 5.69472L27.4014 3.69632ZM25.8716 3.78155L24.8158 2.12233L23.1285 3.19608L24.1843 4.8553L25.8716 3.78155ZM24.8968 2.27846C24.6407 1.65645 24.1719 1.09978 23.614 0.697766C23.0536 0.293934 22.3381 6.13928e-06 21.5587 2.44379e-06L21.5587 2C21.8352 2 22.1504 2.10831 22.4448 2.32039C22.7416 2.53429 22.9516 2.80722 23.0474 3.03996L24.8968 2.27846ZM21.5587 2.44379e-06C20.4251 -2.98023e-06 14.4693 2.44379e-06 11.3017 2.44379e-06V2C14.4693 2 20.4251 2 21.5587 2L21.5587 2.44379e-06ZM11.3017 2.44379e-06C10.6406 2.44379e-06 10.0901 0.0683113 9.61116 0.268264C9.1079 0.478354 8.78166 0.793207 8.518 1.08983L10.0128 2.41856C10.1901 2.21913 10.2787 2.15689 10.3816 2.1139C10.5089 2.06077 10.7561 2 11.3017 2V2.44379e-06ZM8.518 1.08983C7.8228 1.87193 7.54874 2.42353 7.16427 3.19245L8.95313 4.08688C9.32285 3.34743 9.50132 2.994 10.0128 2.41856L8.518 1.08983ZM7.16427 3.19245C7.05796 3.40508 6.97856 3.58637 6.9204 3.71756C6.89016 3.78578 6.86857 3.83392 6.84961 3.87354C6.83072 3.91302 6.82154 3.92892 6.81956 3.9322C6.81658 3.93711 6.87085 3.8444 7.00201 3.76918C7.13327 3.69389 7.23735 3.69553 7.22911 3.69553V5.69553C7.45062 5.69553 7.72613 5.65947 7.9971 5.50405C8.26796 5.34869 8.4302 5.13342 8.53005 4.96865C8.62099 4.81857 8.69592 4.64738 8.74881 4.52808C8.80976 4.39059 8.87089 4.25135 8.95313 4.08688L7.16427 3.19245ZM7.22911 3.69553C6.88216 3.69553 6.12946 3.70136 5.37834 3.74349C5.00374 3.7645 4.61522 3.79529 4.27105 3.84144C3.95976 3.88318 3.57403 3.9503 3.27404 4.08529L4.09477 5.90913C4.08376 5.91409 4.11238 5.90085 4.20488 5.88016C4.28984 5.86116 4.40075 5.84194 4.53684 5.82369C4.80928 5.78716 5.14098 5.75994 5.49033 5.74035C6.18712 5.70127 6.89728 5.69553 7.22911 5.69553V3.69553ZM3.27404 4.08529C1.44102 4.91015 0.387155 6.42566 0.200547 8.29156L2.19062 8.49058C2.30572 7.33972 2.91103 6.44182 4.09477 5.90913L3.27404 4.08529ZM0.200547 8.29156C0.138571 8.91125 0.0447774 12.1322 0.0119131 15.7246C-0.0210862 19.3318 0.00617111 23.429 0.198819 25.8178L2.19235 25.6571C2.00791 23.37 1.97876 19.3579 2.01183 15.7429C2.04504 12.1131 2.13979 8.99886 2.19062 8.49058L0.200547 8.29156ZM0.198819 25.8178C0.293381 26.9904 0.90375 27.8295 1.72716 28.3406C2.5106 28.8268 3.45077 29 4.28776 29V27C3.6918 27 3.15279 26.8715 2.78183 26.6413C2.45084 26.4358 2.23159 26.1437 2.19235 25.6571L0.198819 25.8178ZM4.28776 29C4.2897 29 4.29164 29 4.29361 29C4.29557 29 4.29755 29 4.29954 29C4.30153 29 4.30354 29 4.30557 29C4.30759 29 4.30963 29 4.31168 29C4.31374 29 4.3158 29 4.31789 29C4.31997 29 4.32207 29 4.32418 29C4.32629 29 4.32842 29 4.33056 29C4.33271 29 4.33486 29 4.33704 29C4.33921 29 4.3414 29 4.3436 29C4.3458 29 4.34802 29 4.35025 29C4.35248 29 4.35472 29 4.35698 29C4.35924 29 4.36152 29 4.36381 29C4.3661 29 4.3684 29 4.37072 29C4.37304 29 4.37537 29 4.37772 29C4.38006 29 4.38243 29 4.3848 29C4.38718 29 4.38957 29 4.39197 29C4.39438 29 4.3968 29 4.39923 29C4.40166 29 4.40411 29 4.40657 29C4.40903 29 4.41151 29 4.414 29C4.41649 29 4.41899 29 4.42151 29C4.42403 29 4.42656 29 4.42911 29C4.43166 29 4.43422 29 4.43679 29C4.43937 29 4.44196 29 4.44456 29C4.44716 29 4.44978 29 4.45241 29C4.45504 29 4.45768 29 4.46034 29C4.463 29 4.46567 29 4.46836 29C4.47104 29 4.47374 29 4.47645 29C4.47917 29 4.48189 29 4.48464 29C4.48738 29 4.49013 29 4.4929 29C4.49567 29 4.49845 29 4.50124 29C4.50404 29 4.50685 29 4.50967 29C4.51249 29 4.51533 29 4.51818 29C4.52103 29 4.52389 29 4.52676 29C4.52964 29 4.53253 29 4.53543 29C4.53833 29 4.54125 29 4.54418 29C4.54711 29 4.55005 29 4.55301 29C4.55596 29 4.55893 29 4.56192 29C4.5649 29 4.56789 29 4.5709 29C4.57391 29 4.57693 29 4.57997 29C4.583 29 4.58605 29 4.58911 29C4.59217 29 4.59525 29 4.59833 29C4.60142 29 4.60452 29 4.60763 29C4.61075 29 4.61387 29 4.61701 29C4.62015 29 4.6233 29 4.62647 29C4.62963 29 4.63281 29 4.636 29C4.63919 29 4.64239 29 4.64561 29C4.64882 29 4.65205 29 4.65529 29C4.65853 29 4.66179 29 4.66505 29C4.66832 29 4.6716 29 4.67489 29C4.67818 29 4.68148 29 4.6848 29C4.68812 29 4.69144 29 4.69479 29C4.69813 29 4.70148 29 4.70485 29C4.70821 29 4.71159 29 4.71498 29C4.71837 29 4.72178 29 4.72519 29C4.72861 29 4.73203 29 4.73547 29C4.73891 29 4.74237 29 4.74583 29C4.74929 29 4.75277 29 4.75626 29C4.75975 29 4.76325 29 4.76676 29C4.77027 29 4.7738 29 4.77733 29C4.78087 29 4.78442 29 4.78798 29C4.79154 29 4.79511 29 4.7987 29C4.80228 29 4.80588 29 4.80949 29C4.8131 29 4.81672 29 4.82035 29C4.82398 29 4.82762 29 4.83128 29C4.83494 29 4.8386 29 4.84228 29C4.84596 29 4.84965 29 4.85335 29C4.85706 29 4.86077 29 4.8645 29C4.86822 29 4.87196 29 4.87571 29C4.87945 29 4.88321 29 4.88699 29C4.89076 29 4.89454 29 4.89834 29C4.90213 29 4.90594 29 4.90975 29C4.91357 29 4.9174 29 4.92124 29C4.92508 29 4.92893 29 4.93279 29C4.93665 29 4.94053 29 4.94441 29C4.9483 29 4.95219 29 4.9561 29C4.96001 29 4.96393 29 4.96786 29C4.97179 29 4.97573 29 4.97968 29C4.98363 29 4.98759 29 4.99157 29C4.99554 29 4.99952 29 5.00352 29C5.00752 29 5.01152 29 5.01554 29C5.01956 29 5.02359 29 5.02762 29C5.03166 29 5.03571 29 5.03977 29C5.04384 29 5.04791 29 5.05199 29C5.05607 29 5.06016 29 5.06427 29C5.06837 29 5.07248 29 5.07661 29C5.08073 29 5.08487 29 5.08902 29C5.09316 29 5.09732 29 5.10149 29C5.10565 29 5.10983 29 5.11402 29C5.11821 29 5.12241 29 5.12661 29C5.13082 29 5.13504 29 5.13927 29C5.1435 29 5.14774 29 5.15199 29C5.15624 29 5.1605 29 5.16477 29C5.16904 29 5.17333 29 5.17762 29C5.18191 29 5.18621 29 5.19052 29C5.19483 29 5.19915 29 5.20349 29C5.20782 29 5.21216 29 5.21651 29C5.22086 29 5.22522 29 5.2296 29C5.23397 29 5.23835 29 5.24274 29C5.24713 29 5.25153 29 5.25595 29C5.26036 29 5.26478 29 5.26921 29C5.27364 29 5.27808 29 5.28253 29C5.28698 29 5.29144 29 5.29591 29C5.30038 29 5.30486 29 5.30935 29C5.31384 29 5.31834 29 5.32285 29C5.32736 29 5.33188 29 5.3364 29C5.34093 29 5.34547 29 5.35002 29C5.35456 29 5.35912 29 5.36368 29C5.36825 29 5.37283 29 5.37741 29C5.38199 29 5.38659 29 5.39119 29C5.39579 29 5.40041 29 5.40503 29C5.40965 29 5.41428 29 5.41892 29C5.42356 29 5.42821 29 5.43287 29C5.43753 29 5.4422 29 5.44687 29C5.45155 29 5.45624 29 5.46093 29C5.46563 29 5.47033 29 5.47504 29C5.47976 29 5.48448 29 5.48921 29C5.49394 29 5.49868 29 5.50343 29C5.50818 29 5.51294 29 5.5177 29C5.52247 29 5.52725 29 5.53203 29C5.53681 29 5.54161 29 5.54641 29C5.55121 29 5.55602 29 5.56084 29C5.56566 29 5.57049 29 5.57532 29C5.58016 29 5.58501 29 5.58986 29C5.59471 29 5.59958 29 5.60445 29C5.60932 29 5.6142 29 5.61908 29C5.62397 29 5.62887 29 5.63377 29C5.63868 29 5.64359 29 5.64851 29C5.65343 29 5.65836 29 5.6633 29C5.66824 29 5.67318 29 5.67814 29C5.68309 29 5.68806 29 5.69303 29C5.698 29 5.70298 29 5.70796 29C5.71295 29 5.71795 29 5.72295 29C5.72795 29 5.73297 29 5.73799 29C5.74301 29 5.74803 29 5.75307 29C5.7581 29 5.76315 29 5.7682 29C5.77325 29 5.77831 29 5.78338 29C5.78845 29 5.79352 29 5.7986 29C5.80369 29 5.80878 29 5.81388 29C5.81897 29 5.82408 29 5.8292 29C5.83431 29 5.83943 29 5.84456 29C5.84969 29 5.85483 29 5.85997 29C5.86512 29 5.87027 29 5.87543 29C5.88059 29 5.88576 29 5.89093 29C5.89611 29 5.90129 29 5.90648 29C5.91167 29 5.91687 29 5.92207 29C5.92727 29 5.93249 29 5.93771 29C5.94293 29 5.94815 29 5.95339 29C5.95862 29 5.96386 29 5.96911 29C5.97436 29 5.97961 29 5.98488 29C5.99014 29 5.99541 29 6.00069 29C6.00596 29 6.01125 29 6.01654 29C6.02183 29 6.02713 29 6.03244 29C6.03774 29 6.04305 29 6.04837 29C6.05369 29 6.05902 29 6.06435 29C6.06968 29 6.07503 29 6.08037 29C6.08572 29 6.09107 29 6.09643 29C6.10179 29 6.10716 29 6.11254 29C6.11791 29 6.12329 29 6.12868 29C6.13407 29 6.13946 29 6.14486 29C6.15026 29 6.15567 29 6.16108 29C6.1665 29 6.17192 29 6.17735 29C6.18277 29 6.18821 29 6.19365 29C6.19909 29 6.20454 29 6.20999 29C6.21544 29 6.2209 29 6.22637 29C6.23183 29 6.23731 29 6.24278 29C6.24826 29 6.25375 29 6.25924 29C6.26473 29 6.27023 29 6.27573 29C6.28123 29 6.28674 29 6.29226 29C6.29778 29 6.3033 29 6.30883 29C6.31435 29 6.31989 29 6.32543 29C6.33097 29 6.33652 29 6.34207 29C6.34762 29 6.35318 29 6.35874 29C6.36431 29 6.36988 29 6.37545 29C6.38103 29 6.38661 29 6.3922 29C6.39779 29 6.40338 29 6.40898 29C6.41458 29 6.42019 29 6.4258 29C6.43141 29 6.43703 29 6.44265 29C6.44827 29 6.4539 29 6.45953 29C6.46517 29 6.4708 29 6.47645 29C6.48209 29 6.48774 29 6.4934 29C6.49906 29 6.50472 29 6.51038 29C6.51605 29 6.52172 29 6.5274 29C6.53308 29 6.53876 29 6.54445 29C6.55014 29 6.55583 29 6.56153 29C6.56723 29 6.57294 29 6.57864 29C6.58435 29 6.59007 29 6.59579 29C6.60151 29 6.60723 29 6.61296 29C6.61869 29 6.62443 29 6.63017 29C6.63591 29 6.64166 29 6.64741 29C6.65316 29 6.65891 29 6.66467 29C6.67043 29 6.6762 29 6.68197 29C6.68774 29 6.69352 29 6.6993 29C6.70508 29 6.71086 29 6.71665 29C6.72244 29 6.72824 29 6.73404 29C6.73984 29 6.74564 29 6.75145 29C6.75726 29 6.76307 29 6.76889 29C6.77471 29 6.78053 29 6.78636 29C6.79219 29 6.79802 29 6.80386 29C6.80969 29 6.81553 29 6.82138 29C6.82722 29 6.83307 29 6.83893 29C6.84478 29 6.85064 29 6.85651 29C6.86237 29 6.86824 29 6.87411 29C6.87998 29 6.88586 29 6.89174 29C6.89762 29 6.9035 29 6.90939 29C6.91528 29 6.92118 29 6.92707 29C6.93297 29 6.93887 29 6.94478 29C6.95068 29 6.95659 29 6.96251 29C6.96842 29 6.97434 29 6.98026 29C6.98618 29 6.99211 29 6.99804 29C7.00397 29 7.0099 29 7.01584 29C7.02178 29 7.02772 29 7.03367 29C7.03961 29 7.04556 29 7.05152 29C7.05747 29 7.06343 29 7.06939 29C7.07535 29 7.08131 29 7.08728 29C7.09325 29 7.09922 29 7.1052 29C7.11117 29 7.11715 29 7.12313 29C7.12911 29 7.1351 29 7.14109 29C7.14708 29 7.15307 29 7.15907 29C7.16507 29 7.17107 29 7.17707 29C7.18307 29 7.18908 29 7.19509 29C7.2011 29 7.20712 29 7.21313 29C7.21915 29 7.22517 29 7.23119 29C7.23722 29 7.24324 29 7.24927 29C7.2553 29 7.26134 29 7.26737 29C7.27341 29 7.27945 29 7.28549 29C7.29153 29 7.29758 29 7.30363 29C7.30968 29 7.31573 29 7.32178 29C7.32784 29 7.3339 29 7.33996 29C7.34602 29 7.35208 29 7.35815 29C7.36421 29 7.37028 29 7.37635 29C7.38243 29 7.3885 29 7.39458 29C7.40066 29 7.40674 29 7.41282 29C7.4189 29 7.42499 29 7.43108 29C7.43717 29 7.44326 29 7.44935 29C7.45544 29 7.46154 29 7.46764 29C7.47374 29 7.47984 29 7.48594 29C7.49205 29 7.49815 29 7.50426 29C7.51037 29 7.51648 29 7.5226 29C7.52871 29 7.53483 29 7.54095 29C7.54706 29 7.55318 29 7.55931 29C7.56543 29 7.57156 29 7.57768 29C7.58381 29 7.58994 29 7.59607 29C7.6022 29 7.60834 29 7.61447 29C7.62061 29 7.62675 29 7.63289 29C7.63903 29 7.64517 29 7.65132 29C7.65746 29 7.66361 29 7.66976 29C7.67591 29 7.68206 29 7.68821 29C7.69436 29 7.70051 29 7.70667 29C7.71283 29 7.71899 29 7.72514 29C7.7313 29 7.73747 29 7.74363 29C7.74979 29 7.75596 29 7.76212 29C7.76829 29 7.77446 29 7.78063 29C7.7868 29 7.79297 29 7.79914 29C7.80532 29 7.81149 29 7.81767 29C7.82385 29 7.83002 29 7.8362 29C7.84238 29 7.84856 29 7.85475 29C7.86093 29 7.86711 29 7.8733 29C7.87948 29 7.88567 29 7.89186 29C7.89804 29 7.90423 29 7.91042 29C7.91661 29 7.9228 29 7.929 29C7.93519 29 7.94138 29 7.94758 29C7.95377 29 7.95997 29 7.96617 29C7.97237 29 7.97856 29 7.98476 29C7.99096 29 7.99716 29 8.00337 29C8.00957 29 8.01577 29 8.02197 29C8.02818 29 8.03438 29 8.04059 29C8.04679 29 8.053 29 8.05921 29C8.06541 29 8.07162 29 8.07783 29C8.08404 29 8.09025 29 8.09646 29C8.10267 29 8.10888 29 8.11509 29C8.1213 29 8.12751 29 8.13373 29C8.13994 29 8.14615 29 8.15237 29C8.15858 29 8.16479 29 8.17101 29C8.17722 29 8.18344 29 8.18966 29C8.19587 29 8.20209 29 8.20831 29C8.21452 29 8.22074 29 8.22696 29C8.23318 29 8.23939 29 8.24561 29C8.25183 29 8.25805 29 8.26427 29C8.27049 29 8.2767 29 8.28292 29C8.28914 29 8.29536 29 8.30158 29C8.3078 29 8.31402 29 8.32024 29C8.32646 29 8.33268 29 8.3389 29C8.34512 29 8.35134 29 8.35756 29C8.36378 29 8.37 29 8.37622 29C8.38244 29 8.38866 29 8.39488 29C8.4011 29 8.40732 29 8.41354 29C8.41976 29 8.42597 29 8.43219 29C8.43841 29 8.44463 29 8.45085 29C8.45707 29 8.46328 29 8.4695 29C8.47572 29 8.48194 29 8.48815 29C8.49437 29 8.50059 29 8.5068 29C8.51302 29 8.51923 29 8.52545 29C8.53166 29 8.53788 29 8.54409 29C8.55031 29 8.55652 29 8.56273 29C8.56895 29 8.57516 29 8.58137 29C8.58758 29 8.59379 29 8.6 29C8.60621 29 8.61242 29 8.61863 29C8.62484 29 8.63104 29 8.63725 29C8.64346 29 8.64966 29 8.65587 29C8.66207 29 8.66828 29 8.67448 29C8.68069 29 8.68689 29 8.69309 29C8.69929 29 8.70549 29 8.71169 29C8.71789 29 8.72409 29 8.73029 29C8.73648 29 8.74268 29 8.74887 29C8.75507 29 8.76126 29 8.76745 29C8.77365 29 8.77984 29 8.78603 29C8.79222 29 8.79841 29 8.80459 29C8.81078 29 8.81697 29 8.82315 29C8.82934 29 8.83552 29 8.8417 29C8.84788 29 8.85407 29 8.86024 29C8.86642 29 8.8726 29 8.87878 29C8.88495 29 8.89113 29 8.8973 29C8.90347 29 8.90964 29 8.91581 29C8.92198 29 8.92815 29 8.93432 29C8.94049 29 8.94665 29 8.95281 29C8.95898 29 8.96514 29 8.9713 29C8.97746 29 8.98361 29 8.98977 29C8.99592 29 9.00208 29 9.00823 29C9.01438 29 9.02053 29 9.02668 29C9.03283 29 9.03897 29 9.04512 29C9.05126 29 9.0574 29 9.06354 29C9.06968 29 9.07582 29 9.08196 29C9.08809 29 9.09423 29 9.10036 29C9.10649 29 9.11262 29 9.11875 29C9.12487 29 9.131 29 9.13712 29C9.14324 29 9.14936 29 9.15548 29C9.1616 29 9.16772 29 9.17383 29C9.17994 29 9.18605 29 9.19216 29C9.19827 29 9.20437 29 9.21048 29C9.21658 29 9.22268 29 9.22878 29C9.23488 29 9.24097 29 9.24707 29C9.25316 29 9.25925 29 9.26534 29C9.27143 29 9.27751 29 9.2836 29C9.28968 29 9.29576 29 9.30183 29C9.30791 29 9.31399 29 9.32006 29C9.32613 29 9.3322 29 9.33826 29C9.34433 29 9.35039 29 9.35645 29C9.36251 29 9.36857 29 9.37462 29C9.38068 29 9.38673 29 9.39277 29C9.39882 29 9.40487 29 9.41091 29C9.41695 29 9.42299 29 9.42903 29C9.43506 29 9.44109 29 9.44712 29C9.45315 29 9.45918 29 9.4652 29C9.47122 29 9.47724 29 9.48326 29C9.48928 29 9.49529 29 9.5013 29C9.50731 29 9.51331 29 9.51932 29C9.52532 29 9.53132 29 9.53732 29C9.54331 29 9.5493 29 9.55529 29C9.56128 29 9.56727 29 9.57325 29C9.57923 29 9.58521 29 9.59118 29C9.59716 29 9.60313 29 9.6091 29C9.61506 29 9.62103 29 9.62699 29C9.63295 29 9.6389 29 9.64485 29C9.65081 29 9.65676 29 9.6627 29C9.66864 29 9.67459 29 9.68052 29C9.68646 29 9.69239 29 9.69832 29C9.70425 29 9.71018 29 9.7161 29C9.72202 29 9.72794 29 9.73385 29C9.73976 29 9.74567 29 9.75158 29C9.75748 29 9.76338 29 9.76928 29C9.77518 29 9.78107 29 9.78695 29C9.79284 29 9.79873 29 9.80461 29C9.81049 29 9.81636 29 9.82223 29C9.8281 29 9.83397 29 9.83983 29C9.8457 29 9.85155 29 9.85741 29C9.86326 29 9.86911 29 9.87496 29C9.8808 29 9.88664 29 9.89248 29C9.89831 29 9.90414 29 9.90997 29C9.9158 29 9.92162 29 9.92743 29C9.93325 29 9.93906 29 9.94487 29C9.95068 29 9.95648 29 9.96228 29C9.96808 29 9.97387 29 9.97966 29C9.98545 29 9.99124 29 9.99701 29C10.0028 29 10.0086 29 10.0143 29C10.0201 29 10.0259 29 10.0316 29C10.0374 29 10.0431 29 10.0489 29C10.0546 29 10.0604 29 10.0661 29C10.0719 29 10.0776 29 10.0833 29C10.0891 29 10.0948 29 10.1005 29C10.1062 29 10.1119 29 10.1176 29C10.1234 29 10.1291 29 10.1348 29C10.1405 29 10.1461 29 10.1518 29C10.1575 29 10.1632 29 10.1689 29C10.1746 29 10.1802 29 10.1859 29C10.1916 29 10.1972 29 10.2029 29C10.2085 29 10.2142 29 10.2198 29C10.2255 29 10.2311 29 10.2367 29C10.2424 29 10.248 29 10.2536 29C10.2592 29 10.2648 29 10.2705 29C10.2761 29 10.2817 29 10.2873 29C10.2929 29 10.2985 29 10.304 29C10.3096 29 10.3152 29 10.3208 29C10.3264 29 10.3319 29 10.3375 29C10.3431 29 10.3486 29 10.3542 29C10.3597 29 10.3653 29 10.3708 29C10.3763 29 10.3819 29 10.3874 29C10.3929 29 10.3984 29 10.404 29C10.4095 29 10.415 29 10.4205 29C10.426 29 10.4315 29 10.437 29C10.4425 29 10.4479 29 10.4534 29C10.4589 29 10.4644 29 10.4698 29C10.4753 29 10.4808 29 10.4862 29C10.4917 29 10.4971 29 10.5025 29C10.508 29 10.5134 29 10.5188 29C10.5243 29 10.5297 29 10.5351 29C10.5405 29 10.5459 29 10.5513 29C10.5567 29 10.5621 29 10.5675 29C10.5729 29 10.5783 29 10.5836 29C10.589 29 10.5944 29 10.5997 29C10.6051 29 10.6104 29 10.6158 29C10.6211 29 10.6265 29 10.6318 29C10.6371 29 10.6425 29 10.6478 29C10.6531 29 10.6584 29 10.6637 29C10.669 29 10.6743 29 10.6796 29C10.6849 29 10.6902 29 10.6955 29C10.7007 29 10.706 29 10.7113 29C10.7165 29 10.7218 29 10.727 29C10.7323 29 10.7375 29 10.7427 29C10.748 29 10.7532 29 10.7584 29C10.7636 29 10.7688 29 10.774 29C10.7793 29 10.7844 29 10.7896 29C10.7948 29 10.8 29 10.8052 29C10.8103 29 10.8155 29 10.8207 29C10.8258 29 10.831 29 10.8361 29C10.8413 29 10.8464 29 10.8515 29C10.8567 29 10.8618 29 10.8669 29C10.872 29 10.8771 29 10.8822 29C10.8873 29 10.8924 29 10.8975 29C10.9026 29 10.9076 29 10.9127 29C10.9178 29 10.9228 29 10.9279 29C10.9329 29 10.938 29 10.943 29C10.948 29 10.9531 29 10.9581 29C10.9631 29 10.9681 29 10.9731 29C10.9781 29 10.9831 29 10.9881 29C10.9931 29 10.998 29 11.003 29C11.008 29 11.0129 29 11.0179 29C11.0228 29 11.0278 29 11.0327 29C11.0377 29 11.0426 29 11.0475 29C11.0524 29 11.0573 29 11.0622 29C11.0671 29 11.072 29 11.0769 29C11.0818 29 11.0867 29 11.0916 29C11.0964 29 11.1013 29 11.1061 29C11.111 29 11.1158 29 11.1207 29C11.1255 29 11.1303 29 11.1351 29C11.14 29 11.1448 29 11.1496 29C11.1544 29 11.1592 29 11.1639 29C11.1687 29 11.1735 29 11.1783 29C11.183 29 11.1878 29 11.1925 29C11.1973 29 11.202 29 11.2067 29C11.2115 29 11.2162 29 11.2209 29C11.2256 29 11.2303 29 11.235 29C11.2397 29 11.2444 29 11.2491 29C11.2537 29 11.2584 29 11.2631 29C11.2677 29 11.2724 29 11.277 29C11.2816 29 11.2863 29 11.2909 29C11.2955 29 11.3001 29 11.3047 29C11.3093 29 11.3139 29 11.3185 29C11.3231 29 11.3277 29 11.3322 29C11.3368 29 11.3413 29 11.3459 29C11.3504 29 11.355 29 11.3595 29C11.364 29 11.3685 29 11.373 29C11.3775 29 11.382 29 11.3865 29C11.391 29 11.3955 29 11.4 29C11.4044 29 11.4089 29 11.4133 29C11.4178 29 11.4222 29 11.4266 29C11.4311 29 11.4355 29 11.4399 29C11.4443 29 11.4487 29 11.4531 29C11.4575 29 11.4619 29 11.4662 29C11.4706 29 11.475 29 11.4793 29C11.4837 29 11.488 29 11.4923 29C11.4967 29 11.501 29 11.5053 29C11.5096 29 11.5139 29 11.5182 29C11.5225 29 11.5268 29 11.531 29C11.5353 29 11.5396 29 11.5438 29C11.5481 29 11.5523 29 11.5565 29C11.5607 29 11.565 29 11.5692 29C11.5734 29 11.5776 29 11.5818 29C11.5859 29 11.5901 29 11.5943 29C11.5984 29 11.6026 29 11.6067 29C11.6109 29 11.615 29 11.6191 29C11.6233 29 11.6274 29 11.6315 29C11.6356 29 11.6397 29 11.6437 29C11.6478 29 11.6519 29 11.656 29C11.66 29 11.6641 29 11.6681 29C11.6721 29 11.6762 29 11.6802 29C11.6842 29 11.6882 29 11.6922 29C11.6962 29 11.7002 29 11.7041 29C11.7081 29 11.7121 29 11.716 29C11.72 29 11.7239 29 11.7278 29C11.7318 29 11.7357 29 11.7396 29C11.7435 29 11.7474 29 11.7513 29C11.7551 29 11.759 29 11.7629 29C11.7667 29 11.7706 29 11.7744 29C11.7783 29 11.7821 29 11.7859 29C11.7897 29 11.7935 29 11.7973 29C11.8011 29 11.8049 29 11.8086 29C11.8124 29 11.8162 29 11.8199 29C11.8237 29 11.8274 29 11.8311 29C11.8348 29 11.8386 29 11.8423 29C11.846 29 11.8496 29 11.8533 29C11.857 29 11.8607 29 11.8643 29C11.868 29 11.8716 29 11.8752 29C11.8789 29 11.8825 29 11.8861 29C11.8897 29 11.8933 29 11.8969 29C11.9005 29 11.904 29 11.9076 29C11.9111 29 11.9147 29 11.9182 29C11.9218 29 11.9253 29 11.9288 29C11.9323 29 11.9358 29 11.9393 29C11.9428 29 11.9462 29 11.9497 29C11.9532 29 11.9566 29 11.96 29C11.9635 29 11.9669 29 11.9703 29C11.9737 29 11.9771 29 11.9805 29V27C11.9771 27 11.9737 27 11.9703 27C11.9669 27 11.9635 27 11.96 27C11.9566 27 11.9532 27 11.9497 27C11.9462 27 11.9428 27 11.9393 27C11.9358 27 11.9323 27 11.9288 27C11.9253 27 11.9218 27 11.9182 27C11.9147 27 11.9111 27 11.9076 27C11.904 27 11.9005 27 11.8969 27C11.8933 27 11.8897 27 11.8861 27C11.8825 27 11.8789 27 11.8752 27C11.8716 27 11.868 27 11.8643 27C11.8607 27 11.857 27 11.8533 27C11.8496 27 11.846 27 11.8423 27C11.8386 27 11.8348 27 11.8311 27C11.8274 27 11.8237 27 11.8199 27C11.8162 27 11.8124 27 11.8086 27C11.8049 27 11.8011 27 11.7973 27C11.7935 27 11.7897 27 11.7859 27C11.7821 27 11.7783 27 11.7744 27C11.7706 27 11.7667 27 11.7629 27C11.759 27 11.7551 27 11.7513 27C11.7474 27 11.7435 27 11.7396 27C11.7357 27 11.7318 27 11.7278 27C11.7239 27 11.72 27 11.716 27C11.7121 27 11.7081 27 11.7041 27C11.7002 27 11.6962 27 11.6922 27C11.6882 27 11.6842 27 11.6802 27C11.6762 27 11.6721 27 11.6681 27C11.6641 27 11.66 27 11.656 27C11.6519 27 11.6478 27 11.6437 27C11.6397 27 11.6356 27 11.6315 27C11.6274 27 11.6233 27 11.6191 27C11.615 27 11.6109 27 11.6067 27C11.6026 27 11.5984 27 11.5943 27C11.5901 27 11.5859 27 11.5818 27C11.5776 27 11.5734 27 11.5692 27C11.565 27 11.5607 27 11.5565 27C11.5523 27 11.5481 27 11.5438 27C11.5396 27 11.5353 27 11.531 27C11.5268 27 11.5225 27 11.5182 27C11.5139 27 11.5096 27 11.5053 27C11.501 27 11.4967 27 11.4923 27C11.488 27 11.4837 27 11.4793 27C11.475 27 11.4706 27 11.4662 27C11.4619 27 11.4575 27 11.4531 27C11.4487 27 11.4443 27 11.4399 27C11.4355 27 11.4311 27 11.4266 27C11.4222 27 11.4178 27 11.4133 27C11.4089 27 11.4044 27 11.4 27C11.3955 27 11.391 27 11.3865 27C11.382 27 11.3775 27 11.373 27C11.3685 27 11.364 27 11.3595 27C11.355 27 11.3504 27 11.3459 27C11.3413 27 11.3368 27 11.3322 27C11.3277 27 11.3231 27 11.3185 27C11.3139 27 11.3093 27 11.3047 27C11.3001 27 11.2955 27 11.2909 27C11.2863 27 11.2816 27 11.277 27C11.2724 27 11.2677 27 11.2631 27C11.2584 27 11.2537 27 11.2491 27C11.2444 27 11.2397 27 11.235 27C11.2303 27 11.2256 27 11.2209 27C11.2162 27 11.2115 27 11.2067 27C11.202 27 11.1973 27 11.1925 27C11.1878 27 11.183 27 11.1783 27C11.1735 27 11.1687 27 11.1639 27C11.1592 27 11.1544 27 11.1496 27C11.1448 27 11.14 27 11.1351 27C11.1303 27 11.1255 27 11.1207 27C11.1158 27 11.111 27 11.1061 27C11.1013 27 11.0964 27 11.0916 27C11.0867 27 11.0818 27 11.0769 27C11.072 27 11.0671 27 11.0622 27C11.0573 27 11.0524 27 11.0475 27C11.0426 27 11.0377 27 11.0327 27C11.0278 27 11.0228 27 11.0179 27C11.0129 27 11.008 27 11.003 27C10.998 27 10.9931 27 10.9881 27C10.9831 27 10.9781 27 10.9731 27C10.9681 27 10.9631 27 10.9581 27C10.9531 27 10.948 27 10.943 27C10.938 27 10.9329 27 10.9279 27C10.9228 27 10.9178 27 10.9127 27C10.9076 27 10.9026 27 10.8975 27C10.8924 27 10.8873 27 10.8822 27C10.8771 27 10.872 27 10.8669 27C10.8618 27 10.8567 27 10.8515 27C10.8464 27 10.8413 27 10.8361 27C10.831 27 10.8258 27 10.8207 27C10.8155 27 10.8103 27 10.8052 27C10.8 27 10.7948 27 10.7896 27C10.7844 27 10.7793 27 10.774 27C10.7688 27 10.7636 27 10.7584 27C10.7532 27 10.748 27 10.7427 27C10.7375 27 10.7323 27 10.727 27C10.7218 27 10.7165 27 10.7113 27C10.706 27 10.7007 27 10.6955 27C10.6902 27 10.6849 27 10.6796 27C10.6743 27 10.669 27 10.6637 27C10.6584 27 10.6531 27 10.6478 27C10.6425 27 10.6371 27 10.6318 27C10.6265 27 10.6211 27 10.6158 27C10.6104 27 10.6051 27 10.5997 27C10.5944 27 10.589 27 10.5836 27C10.5783 27 10.5729 27 10.5675 27C10.5621 27 10.5567 27 10.5513 27C10.5459 27 10.5405 27 10.5351 27C10.5297 27 10.5243 27 10.5188 27C10.5134 27 10.508 27 10.5025 27C10.4971 27 10.4917 27 10.4862 27C10.4808 27 10.4753 27 10.4698 27C10.4644 27 10.4589 27 10.4534 27C10.4479 27 10.4425 27 10.437 27C10.4315 27 10.426 27 10.4205 27C10.415 27 10.4095 27 10.404 27C10.3984 27 10.3929 27 10.3874 27C10.3819 27 10.3763 27 10.3708 27C10.3653 27 10.3597 27 10.3542 27C10.3486 27 10.3431 27 10.3375 27C10.3319 27 10.3264 27 10.3208 27C10.3152 27 10.3096 27 10.304 27C10.2985 27 10.2929 27 10.2873 27C10.2817 27 10.2761 27 10.2705 27C10.2648 27 10.2592 27 10.2536 27C10.248 27 10.2424 27 10.2367 27C10.2311 27 10.2255 27 10.2198 27C10.2142 27 10.2085 27 10.2029 27C10.1972 27 10.1916 27 10.1859 27C10.1802 27 10.1746 27 10.1689 27C10.1632 27 10.1575 27 10.1518 27C10.1461 27 10.1405 27 10.1348 27C10.1291 27 10.1234 27 10.1176 27C10.1119 27 10.1062 27 10.1005 27C10.0948 27 10.0891 27 10.0833 27C10.0776 27 10.0719 27 10.0661 27C10.0604 27 10.0546 27 10.0489 27C10.0431 27 10.0374 27 10.0316 27C10.0259 27 10.0201 27 10.0143 27C10.0086 27 10.0028 27 9.99701 27C9.99124 27 9.98545 27 9.97966 27C9.97387 27 9.96808 27 9.96228 27C9.95648 27 9.95068 27 9.94487 27C9.93906 27 9.93325 27 9.92743 27C9.92162 27 9.9158 27 9.90997 27C9.90414 27 9.89831 27 9.89248 27C9.88664 27 9.8808 27 9.87496 27C9.86911 27 9.86326 27 9.85741 27C9.85155 27 9.8457 27 9.83983 27C9.83397 27 9.8281 27 9.82223 27C9.81636 27 9.81049 27 9.80461 27C9.79873 27 9.79284 27 9.78695 27C9.78107 27 9.77518 27 9.76928 27C9.76338 27 9.75748 27 9.75158 27C9.74567 27 9.73976 27 9.73385 27C9.72794 27 9.72202 27 9.7161 27C9.71018 27 9.70425 27 9.69832 27C9.69239 27 9.68646 27 9.68052 27C9.67459 27 9.66864 27 9.6627 27C9.65676 27 9.65081 27 9.64485 27C9.6389 27 9.63295 27 9.62699 27C9.62103 27 9.61506 27 9.6091 27C9.60313 27 9.59716 27 9.59118 27C9.58521 27 9.57923 27 9.57325 27C9.56727 27 9.56128 27 9.55529 27C9.5493 27 9.54331 27 9.53732 27C9.53132 27 9.52532 27 9.51932 27C9.51331 27 9.50731 27 9.5013 27C9.49529 27 9.48928 27 9.48326 27C9.47724 27 9.47122 27 9.4652 27C9.45918 27 9.45315 27 9.44712 27C9.44109 27 9.43506 27 9.42903 27C9.42299 27 9.41695 27 9.41091 27C9.40487 27 9.39882 27 9.39277 27C9.38673 27 9.38068 27 9.37462 27C9.36857 27 9.36251 27 9.35645 27C9.35039 27 9.34433 27 9.33826 27C9.3322 27 9.32613 27 9.32006 27C9.31399 27 9.30791 27 9.30183 27C9.29576 27 9.28968 27 9.2836 27C9.27751 27 9.27143 27 9.26534 27C9.25925 27 9.25316 27 9.24707 27C9.24097 27 9.23488 27 9.22878 27C9.22268 27 9.21658 27 9.21048 27C9.20437 27 9.19827 27 9.19216 27C9.18605 27 9.17994 27 9.17383 27C9.16772 27 9.1616 27 9.15548 27C9.14936 27 9.14324 27 9.13712 27C9.131 27 9.12487 27 9.11875 27C9.11262 27 9.10649 27 9.10036 27C9.09423 27 9.08809 27 9.08196 27C9.07582 27 9.06968 27 9.06354 27C9.0574 27 9.05126 27 9.04512 27C9.03897 27 9.03283 27 9.02668 27C9.02053 27 9.01438 27 9.00823 27C9.00208 27 8.99592 27 8.98977 27C8.98361 27 8.97746 27 8.9713 27C8.96514 27 8.95898 27 8.95281 27C8.94665 27 8.94049 27 8.93432 27C8.92815 27 8.92198 27 8.91581 27C8.90964 27 8.90347 27 8.8973 27C8.89113 27 8.88495 27 8.87878 27C8.8726 27 8.86642 27 8.86024 27C8.85407 27 8.84788 27 8.8417 27C8.83552 27 8.82934 27 8.82315 27C8.81697 27 8.81078 27 8.80459 27C8.79841 27 8.79222 27 8.78603 27C8.77984 27 8.77365 27 8.76745 27C8.76126 27 8.75507 27 8.74887 27C8.74268 27 8.73648 27 8.73029 27C8.72409 27 8.71789 27 8.71169 27C8.70549 27 8.69929 27 8.69309 27C8.68689 27 8.68069 27 8.67448 27C8.66828 27 8.66207 27 8.65587 27C8.64966 27 8.64346 27 8.63725 27C8.63104 27 8.62484 27 8.61863 27C8.61242 27 8.60621 27 8.6 27C8.59379 27 8.58758 27 8.58137 27C8.57516 27 8.56895 27 8.56273 27C8.55652 27 8.55031 27 8.54409 27C8.53788 27 8.53166 27 8.52545 27C8.51923 27 8.51302 27 8.5068 27C8.50059 27 8.49437 27 8.48815 27C8.48194 27 8.47572 27 8.4695 27C8.46328 27 8.45707 27 8.45085 27C8.44463 27 8.43841 27 8.43219 27C8.42597 27 8.41976 27 8.41354 27C8.40732 27 8.4011 27 8.39488 27C8.38866 27 8.38244 27 8.37622 27C8.37 27 8.36378 27 8.35756 27C8.35134 27 8.34512 27 8.3389 27C8.33268 27 8.32646 27 8.32024 27C8.31402 27 8.3078 27 8.30158 27C8.29536 27 8.28914 27 8.28292 27C8.2767 27 8.27049 27 8.26427 27C8.25805 27 8.25183 27 8.24561 27C8.23939 27 8.23318 27 8.22696 27C8.22074 27 8.21452 27 8.20831 27C8.20209 27 8.19587 27 8.18966 27C8.18344 27 8.17722 27 8.17101 27C8.16479 27 8.15858 27 8.15237 27C8.14615 27 8.13994 27 8.13373 27C8.12751 27 8.1213 27 8.11509 27C8.10888 27 8.10267 27 8.09646 27C8.09025 27 8.08404 27 8.07783 27C8.07162 27 8.06541 27 8.05921 27C8.053 27 8.04679 27 8.04059 27C8.03438 27 8.02818 27 8.02197 27C8.01577 27 8.00957 27 8.00337 27C7.99716 27 7.99096 27 7.98476 27C7.97856 27 7.97237 27 7.96617 27C7.95997 27 7.95377 27 7.94758 27C7.94138 27 7.93519 27 7.929 27C7.9228 27 7.91661 27 7.91042 27C7.90423 27 7.89804 27 7.89186 27C7.88567 27 7.87948 27 7.8733 27C7.86711 27 7.86093 27 7.85475 27C7.84856 27 7.84238 27 7.8362 27C7.83002 27 7.82385 27 7.81767 27C7.81149 27 7.80532 27 7.79914 27C7.79297 27 7.7868 27 7.78063 27C7.77446 27 7.76829 27 7.76212 27C7.75596 27 7.74979 27 7.74363 27C7.73747 27 7.7313 27 7.72514 27C7.71899 27 7.71283 27 7.70667 27C7.70051 27 7.69436 27 7.68821 27C7.68206 27 7.67591 27 7.66976 27C7.66361 27 7.65746 27 7.65132 27C7.64517 27 7.63903 27 7.63289 27C7.62675 27 7.62061 27 7.61447 27C7.60834 27 7.6022 27 7.59607 27C7.58994 27 7.58381 27 7.57768 27C7.57156 27 7.56543 27 7.55931 27C7.55318 27 7.54706 27 7.54095 27C7.53483 27 7.52871 27 7.5226 27C7.51648 27 7.51037 27 7.50426 27C7.49815 27 7.49205 27 7.48594 27C7.47984 27 7.47374 27 7.46764 27C7.46154 27 7.45544 27 7.44935 27C7.44326 27 7.43717 27 7.43108 27C7.42499 27 7.4189 27 7.41282 27C7.40674 27 7.40066 27 7.39458 27C7.3885 27 7.38243 27 7.37635 27C7.37028 27 7.36421 27 7.35815 27C7.35208 27 7.34602 27 7.33996 27C7.3339 27 7.32784 27 7.32178 27C7.31573 27 7.30968 27 7.30363 27C7.29758 27 7.29153 27 7.28549 27C7.27945 27 7.27341 27 7.26737 27C7.26134 27 7.2553 27 7.24927 27C7.24324 27 7.23722 27 7.23119 27C7.22517 27 7.21915 27 7.21313 27C7.20712 27 7.2011 27 7.19509 27C7.18908 27 7.18307 27 7.17707 27C7.17107 27 7.16507 27 7.15907 27C7.15307 27 7.14708 27 7.14109 27C7.1351 27 7.12911 27 7.12313 27C7.11715 27 7.11117 27 7.1052 27C7.09922 27 7.09325 27 7.08728 27C7.08131 27 7.07535 27 7.06939 27C7.06343 27 7.05747 27 7.05152 27C7.04556 27 7.03961 27 7.03367 27C7.02772 27 7.02178 27 7.01584 27C7.0099 27 7.00397 27 6.99804 27C6.99211 27 6.98618 27 6.98026 27C6.97434 27 6.96842 27 6.96251 27C6.95659 27 6.95068 27 6.94478 27C6.93887 27 6.93297 27 6.92707 27C6.92118 27 6.91528 27 6.90939 27C6.9035 27 6.89762 27 6.89174 27C6.88586 27 6.87998 27 6.87411 27C6.86824 27 6.86237 27 6.85651 27C6.85064 27 6.84478 27 6.83893 27C6.83307 27 6.82722 27 6.82138 27C6.81553 27 6.80969 27 6.80386 27C6.79802 27 6.79219 27 6.78636 27C6.78053 27 6.77471 27 6.76889 27C6.76307 27 6.75726 27 6.75145 27C6.74564 27 6.73984 27 6.73404 27C6.72824 27 6.72244 27 6.71665 27C6.71086 27 6.70508 27 6.6993 27C6.69352 27 6.68774 27 6.68197 27C6.6762 27 6.67043 27 6.66467 27C6.65891 27 6.65316 27 6.64741 27C6.64166 27 6.63591 27 6.63017 27C6.62443 27 6.61869 27 6.61296 27C6.60723 27 6.60151 27 6.59579 27C6.59007 27 6.58435 27 6.57864 27C6.57294 27 6.56723 27 6.56153 27C6.55583 27 6.55014 27 6.54445 27C6.53876 27 6.53308 27 6.5274 27C6.52172 27 6.51605 27 6.51038 27C6.50472 27 6.49906 27 6.4934 27C6.48774 27 6.48209 27 6.47645 27C6.4708 27 6.46517 27 6.45953 27C6.4539 27 6.44827 27 6.44265 27C6.43703 27 6.43141 27 6.4258 27C6.42019 27 6.41458 27 6.40898 27C6.40338 27 6.39779 27 6.3922 27C6.38661 27 6.38103 27 6.37545 27C6.36988 27 6.36431 27 6.35874 27C6.35318 27 6.34762 27 6.34207 27C6.33652 27 6.33097 27 6.32543 27C6.31989 27 6.31435 27 6.30883 27C6.3033 27 6.29778 27 6.29226 27C6.28674 27 6.28123 27 6.27573 27C6.27023 27 6.26473 27 6.25924 27C6.25375 27 6.24826 27 6.24278 27C6.23731 27 6.23183 27 6.22637 27C6.2209 27 6.21544 27 6.20999 27C6.20454 27 6.19909 27 6.19365 27C6.18821 27 6.18277 27 6.17735 27C6.17192 27 6.1665 27 6.16108 27C6.15567 27 6.15026 27 6.14486 27C6.13946 27 6.13407 27 6.12868 27C6.12329 27 6.11791 27 6.11254 27C6.10716 27 6.10179 27 6.09643 27C6.09107 27 6.08572 27 6.08037 27C6.07503 27 6.06968 27 6.06435 27C6.05902 27 6.05369 27 6.04837 27C6.04305 27 6.03774 27 6.03244 27C6.02713 27 6.02183 27 6.01654 27C6.01125 27 6.00596 27 6.00069 27C5.99541 27 5.99014 27 5.98488 27C5.97961 27 5.97436 27 5.96911 27C5.96386 27 5.95862 27 5.95339 27C5.94815 27 5.94293 27 5.93771 27C5.93249 27 5.92727 27 5.92207 27C5.91687 27 5.91167 27 5.90648 27C5.90129 27 5.89611 27 5.89093 27C5.88576 27 5.88059 27 5.87543 27C5.87027 27 5.86512 27 5.85997 27C5.85483 27 5.84969 27 5.84456 27C5.83943 27 5.83431 27 5.8292 27C5.82408 27 5.81897 27 5.81388 27C5.80878 27 5.80369 27 5.7986 27C5.79352 27 5.78845 27 5.78338 27C5.77831 27 5.77325 27 5.7682 27C5.76315 27 5.7581 27 5.75307 27C5.74803 27 5.74301 27 5.73799 27C5.73297 27 5.72795 27 5.72295 27C5.71795 27 5.71295 27 5.70796 27C5.70298 27 5.698 27 5.69303 27C5.68806 27 5.68309 27 5.67814 27C5.67318 27 5.66824 27 5.6633 27C5.65836 27 5.65343 27 5.64851 27C5.64359 27 5.63868 27 5.63377 27C5.62887 27 5.62397 27 5.61908 27C5.6142 27 5.60932 27 5.60445 27C5.59958 27 5.59471 27 5.58986 27C5.58501 27 5.58016 27 5.57532 27C5.57049 27 5.56566 27 5.56084 27C5.55602 27 5.55121 27 5.54641 27C5.54161 27 5.53681 27 5.53203 27C5.52725 27 5.52247 27 5.5177 27C5.51294 27 5.50818 27 5.50343 27C5.49868 27 5.49394 27 5.48921 27C5.48448 27 5.47976 27 5.47504 27C5.47033 27 5.46563 27 5.46093 27C5.45624 27 5.45155 27 5.44687 27C5.4422 27 5.43753 27 5.43287 27C5.42821 27 5.42356 27 5.41892 27C5.41428 27 5.40965 27 5.40503 27C5.40041 27 5.39579 27 5.39119 27C5.38659 27 5.38199 27 5.37741 27C5.37283 27 5.36825 27 5.36368 27C5.35912 27 5.35456 27 5.35002 27C5.34547 27 5.34093 27 5.3364 27C5.33188 27 5.32736 27 5.32285 27C5.31834 27 5.31384 27 5.30935 27C5.30486 27 5.30038 27 5.29591 27C5.29144 27 5.28698 27 5.28253 27C5.27808 27 5.27364 27 5.26921 27C5.26478 27 5.26036 27 5.25595 27C5.25153 27 5.24713 27 5.24274 27C5.23835 27 5.23397 27 5.2296 27C5.22522 27 5.22086 27 5.21651 27C5.21216 27 5.20782 27 5.20349 27C5.19915 27 5.19483 27 5.19052 27C5.18621 27 5.18191 27 5.17762 27C5.17333 27 5.16904 27 5.16477 27C5.1605 27 5.15624 27 5.15199 27C5.14774 27 5.1435 27 5.13927 27C5.13504 27 5.13082 27 5.12661 27C5.12241 27 5.11821 27 5.11402 27C5.10983 27 5.10565 27 5.10149 27C5.09732 27 5.09316 27 5.08902 27C5.08487 27 5.08073 27 5.07661 27C5.07248 27 5.06837 27 5.06427 27C5.06016 27 5.05607 27 5.05199 27C5.04791 27 5.04384 27 5.03977 27C5.03571 27 5.03166 27 5.02762 27C5.02359 27 5.01956 27 5.01554 27C5.01152 27 5.00752 27 5.00352 27C4.99952 27 4.99554 27 4.99157 27C4.98759 27 4.98363 27 4.97968 27C4.97573 27 4.97179 27 4.96786 27C4.96393 27 4.96001 27 4.9561 27C4.95219 27 4.9483 27 4.94441 27C4.94053 27 4.93665 27 4.93279 27C4.92893 27 4.92508 27 4.92124 27C4.9174 27 4.91357 27 4.90975 27C4.90594 27 4.90213 27 4.89834 27C4.89454 27 4.89076 27 4.88699 27C4.88321 27 4.87945 27 4.87571 27C4.87196 27 4.86822 27 4.8645 27C4.86077 27 4.85706 27 4.85335 27C4.84965 27 4.84596 27 4.84228 27C4.8386 27 4.83494 27 4.83128 27C4.82762 27 4.82398 27 4.82035 27C4.81672 27 4.8131 27 4.80949 27C4.80588 27 4.80228 27 4.7987 27C4.79511 27 4.79154 27 4.78798 27C4.78442 27 4.78087 27 4.77733 27C4.7738 27 4.77027 27 4.76676 27C4.76325 27 4.75975 27 4.75626 27C4.75277 27 4.74929 27 4.74583 27C4.74237 27 4.73891 27 4.73547 27C4.73203 27 4.72861 27 4.72519 27C4.72178 27 4.71837 27 4.71498 27C4.71159 27 4.70821 27 4.70485 27C4.70148 27 4.69813 27 4.69479 27C4.69144 27 4.68812 27 4.6848 27C4.68148 27 4.67818 27 4.67489 27C4.6716 27 4.66832 27 4.66505 27C4.66179 27 4.65853 27 4.65529 27C4.65205 27 4.64882 27 4.64561 27C4.64239 27 4.63919 27 4.636 27C4.63281 27 4.62963 27 4.62647 27C4.6233 27 4.62015 27 4.61701 27C4.61387 27 4.61075 27 4.60763 27C4.60452 27 4.60142 27 4.59833 27C4.59525 27 4.59217 27 4.58911 27C4.58605 27 4.583 27 4.57997 27C4.57693 27 4.57391 27 4.5709 27C4.56789 27 4.5649 27 4.56192 27C4.55893 27 4.55596 27 4.55301 27C4.55005 27 4.54711 27 4.54418 27C4.54125 27 4.53833 27 4.53543 27C4.53253 27 4.52964 27 4.52676 27C4.52389 27 4.52103 27 4.51818 27C4.51533 27 4.51249 27 4.50967 27C4.50685 27 4.50404 27 4.50124 27C4.49845 27 4.49567 27 4.4929 27C4.49013 27 4.48738 27 4.48464 27C4.48189 27 4.47917 27 4.47645 27C4.47374 27 4.47104 27 4.46836 27C4.46567 27 4.463 27 4.46034 27C4.45768 27 4.45504 27 4.45241 27C4.44978 27 4.44716 27 4.44456 27C4.44196 27 4.43937 27 4.43679 27C4.43422 27 4.43166 27 4.42911 27C4.42656 27 4.42403 27 4.42151 27C4.41899 27 4.41649 27 4.414 27C4.41151 27 4.40903 27 4.40657 27C4.40411 27 4.40166 27 4.39923 27C4.3968 27 4.39438 27 4.39197 27C4.38957 27 4.38718 27 4.3848 27C4.38243 27 4.38006 27 4.37772 27C4.37537 27 4.37304 27 4.37072 27C4.3684 27 4.3661 27 4.36381 27C4.36152 27 4.35924 27 4.35698 27C4.35472 27 4.35248 27 4.35025 27C4.34802 27 4.3458 27 4.3436 27C4.3414 27 4.33921 27 4.33704 27C4.33486 27 4.33271 27 4.33056 27C4.32842 27 4.32629 27 4.32418 27C4.32207 27 4.31997 27 4.31789 27C4.3158 27 4.31374 27 4.31168 27C4.30963 27 4.30759 27 4.30557 27C4.30354 27 4.30153 27 4.29954 27C4.29755 27 4.29557 27 4.29361 27C4.29164 27 4.2897 27 4.28776 27V29ZM11.9805 9.9944H23.0671V7.99441H11.9805V9.9944ZM12.9805 28V18.4972H10.9805V28H12.9805ZM12.9805 18.4972V8.99441H10.9805V18.4972H12.9805ZM11.9805 19.4972H20.0504V17.4972H11.9805V19.4972Z" fill="#9A9A9A"/>
</svg>
