<svg width="40" height="38" viewBox="0 0 40 38" fill="none" xmlns="http://www.w3.org/2000/svg">
<path d="M40 19C40 24.0391 37.8929 28.8718 34.1421 32.435C30.3914 35.9982 25.3043 38 20 38C14.6957 38 9.60859 35.9982 5.85786 32.435C2.10714 28.8718 0 24.0391 0 19C0 13.9609 2.10714 9.12816 5.85786 5.56497C9.60859 2.00178 14.6957 0 20 0C25.3043 0 30.3914 2.00178 34.1421 5.56497C37.8929 9.12816 40 13.9609 40 19ZM20.7175 14.0268C18.7708 14.7963 14.8825 16.3875 9.0525 18.8005C8.1075 19.1567 7.61167 19.5067 7.565 19.8503C7.49 20.4274 8.2525 20.6554 9.29 20.9665L9.7275 21.0971C10.7475 21.413 12.1225 21.7811 12.835 21.7954C13.485 21.8112 14.2083 21.5579 15.005 21.0354C20.4533 17.5425 23.265 15.7771 23.44 15.7391C23.565 15.7106 23.74 15.6774 23.855 15.7771C23.97 15.8769 23.96 16.0621 23.9475 16.112C23.8725 16.4184 20.88 19.0594 19.3325 20.4274C18.85 20.8549 18.5075 21.1565 18.4375 21.2254C18.2834 21.3751 18.1267 21.5223 17.9675 21.6671C17.0175 22.5364 16.3075 23.1871 18.005 24.2511C18.8225 24.7641 19.4775 25.1845 20.13 25.6072C20.84 26.068 21.55 26.5264 22.47 27.1011C22.7033 27.2468 22.9283 27.3948 23.145 27.5452C23.9725 28.1057 24.72 28.6093 25.6375 28.5285C26.1725 28.481 26.725 28.006 27.005 26.581C27.6675 23.2156 28.97 15.9268 29.27 12.9224C29.2889 12.6726 29.2779 12.4217 29.2375 12.1742C29.2133 11.9748 29.1116 11.791 28.9525 11.6589C28.7247 11.5103 28.4538 11.4331 28.1775 11.438C27.4275 11.4499 26.27 11.8323 20.7175 14.0268Z" fill="#9A9A9A"/>
</svg>
