<svg width="40" height="38" viewBox="0 0 40 38" fill="none" xmlns="http://www.w3.org/2000/svg">
<path fill-rule="evenodd" clip-rule="evenodd" d="M8.88889 0C6.53141 0 4.27049 0.88968 2.60349 2.47332C0.936505 4.05696 0 6.20484 0 8.44444V29.5556C0 31.7952 0.936505 33.943 2.60349 35.5267C4.27049 37.1103 6.53141 38 8.88889 38H31.1111C33.4686 38 35.7295 37.1103 37.3965 35.5267C39.0635 33.943 40 31.7952 40 29.5556V8.44444C40 6.20484 39.0635 4.05696 37.3965 2.47332C35.7295 0.88968 33.4686 0 31.1111 0H8.88889ZM31.8489 14.8939C32.176 14.4281 32.2949 13.8578 32.1795 13.3087C32.064 12.7596 31.7237 12.2765 31.2333 11.9658C30.743 11.655 30.1428 11.5421 29.5647 11.6517C28.9867 11.7614 28.4782 12.0847 28.1511 12.5506C27.3644 13.5428 26.54 14.4928 25.5756 15.3372C24.4578 16.3168 23.3267 17.0514 22.2244 17.4863L22.2067 13.4752C22.143 12.9617 21.8831 12.4882 21.4764 12.1446C21.0696 11.801 20.5443 11.6112 20 11.6111C18.7956 11.6766 17.7778 12.521 17.7778 13.7222V22.9541C13.4489 21.8141 11.1111 17.8241 11.1111 13.7222C11.1111 13.1623 10.877 12.6254 10.4602 12.2294C10.0435 11.8335 9.47826 11.6111 8.88889 11.6111C8.29952 11.6111 7.73429 11.8335 7.31754 12.2294C6.90079 12.6254 6.66667 13.1623 6.66667 13.7222C6.66667 21.3898 12.2444 27.4444 20 27.4444C20.5894 27.4444 21.1546 27.222 21.5713 26.8261C21.9881 26.4302 22.2222 25.8932 22.2222 25.3333V22.0337C25.1822 22.2574 28.0533 24.244 29.1244 26.277C29.2493 26.5337 29.4271 26.7639 29.6473 26.954C29.8675 27.1442 30.1258 27.2904 30.4066 27.3839C30.6874 27.4774 30.9852 27.5164 31.2822 27.4986C31.5792 27.4807 31.8694 27.4064 32.1356 27.2799C32.4018 27.1535 32.6386 26.9775 32.8318 26.7625C33.0251 26.5475 33.1709 26.2978 33.2606 26.0282C33.3504 25.7587 33.3822 25.4747 33.3542 25.1933C33.3262 24.9118 33.239 24.6385 33.0978 24.3897C32.0356 22.3693 30.0533 20.4799 27.6133 19.247C27.9422 18.9916 28.2689 18.7213 28.5911 18.4406C29.8154 17.3798 30.9084 16.1899 31.8489 14.8939Z" fill="#9A9A9A"/>
</svg>
