<svg width="40" height="38" viewBox="0 0 40 38" fill="none" xmlns="http://www.w3.org/2000/svg">
<path d="M20 0C31.046 0 40 8.5063 40 19C40 29.4937 31.046 38 20 38C16.4656 38.0054 12.9933 37.1168 9.94002 35.4255L0.00802813 38L2.71203 28.5608C0.930214 25.6592 -0.00587675 22.3592 2.77605e-05 19C2.77605e-05 8.5063 8.95402 0 20 0ZM13.184 10.07L12.784 10.0852C12.5251 10.1002 12.272 10.1648 12.04 10.2752C11.8231 10.3919 11.625 10.5378 11.452 10.7084C11.212 10.9231 11.076 11.1093 10.93 11.2898C10.1903 12.2035 9.79197 13.3253 9.79802 14.478C9.80202 15.409 10.058 16.3153 10.458 17.1627C11.276 18.8765 12.622 20.691 14.398 22.3725C14.826 22.7772 15.246 23.1838 15.698 23.5619C17.9048 25.4077 20.5345 26.7388 23.378 27.4493L24.514 27.6146C24.884 27.6336 25.254 27.607 25.626 27.5899C26.2085 27.5613 26.7772 27.4115 27.292 27.151C27.5539 27.0228 27.8095 26.8833 28.058 26.733C28.058 26.733 28.144 26.6798 28.308 26.562C28.578 26.372 28.744 26.2371 28.968 26.0148C29.134 25.8514 29.278 25.6595 29.388 25.441C29.544 25.1313 29.7 24.5404 29.764 24.0483C29.812 23.6721 29.798 23.4669 29.792 23.3396C29.784 23.1363 29.606 22.9254 29.412 22.8361L28.248 22.3402C28.248 22.3402 26.508 21.6201 25.444 21.1603C25.3327 21.1141 25.2134 21.0877 25.092 21.0824C24.9552 21.069 24.8169 21.0837 24.6865 21.1253C24.5561 21.1669 24.4366 21.2346 24.336 21.3237C24.326 21.3199 24.192 21.4282 22.746 23.0926C22.663 23.1985 22.5487 23.2786 22.4176 23.3226C22.2865 23.3666 22.1446 23.3725 22.01 23.3396C21.8797 23.3064 21.7521 23.2645 21.628 23.2142C21.38 23.1154 21.294 23.0774 21.124 23.009C19.9761 22.5331 18.9134 21.8902 17.974 21.1033C17.722 20.8943 17.488 20.6663 17.248 20.4459C16.4612 19.73 15.7755 18.9202 15.208 18.0367L15.09 17.8562C15.0053 17.7349 14.9367 17.6041 14.886 17.4667C14.81 17.1874 15.008 16.9632 15.008 16.9632C15.008 16.9632 15.494 16.4578 15.72 16.1842C15.94 15.9182 16.126 15.6598 16.246 15.4755C16.482 15.1145 16.556 14.744 16.432 14.4571C15.872 13.1575 15.292 11.8636 14.696 10.5792C14.578 10.3246 14.228 10.1422 13.91 10.1061C13.802 10.0947 13.694 10.0833 13.586 10.0757C13.3174 10.063 13.0483 10.0656 12.78 10.0833L13.184 10.07Z" fill="#9A9A9A"/>
</svg>
